<svg xmlns="http://www.w3.org/2000/svg" width="1093.253" height="990.501" xmlns:v="https://vecta.io/nano"><path d="M593.388 36.909l8.69 2.801c19.849 6.377 39.212 14.056 58.352 22.309l2.59 1.113c13.649 5.981 26.825 13.015 39.972 20.012l2.095 1.113c14.677 7.809 29.059 16.012 43.171 24.804 2.848 1.725 5.735 3.325 8.672 4.895 6.883 3.7 13.154 8.055 19.438 12.688 4.112 3.018 8.316 5.837 12.625 8.563 11.662 7.404 22.631 15.626 33.429 24.229l5.329 4.185c9.602 7.486 19.017 15.161 28.152 23.215l9.59 8.309 1.853 1.601 1.76 1.512 1.575 1.357c1.431 1.162 2.965 2.195 4.499 3.218v2l1.617.652c3.262 1.845 5.809 4.345 8.508 6.91l3.488 3.266 1.737 1.631c7.312 6.829 14.721 13.742 22.65 19.854l2 1.688v2l1.793.77c2.45 1.366 3.743 2.76 5.52 4.918 2.302 2.724 4.637 5.319 7.188 7.813 3.712 3.663 7.106 7.543 10.5 11.5l2.758 3.164c5.817 6.695 11.405 13.503 16.758 20.574 2.105 2.78 4.264 5.513 6.437 8.241 6.509 8.179 12.623 16.625 18.688 25.137a114.35 114.35 0 0 0 3.031 3.999c1.327 1.881 1.327 1.881 1.327 3.881h2c1.386 1.779 2.681 3.628 3.938 5.5l2.457 3.633 1.299 1.935 3.818 5.55c17.54 25.18 33.673 50.971 47.488 78.383l1.222 2.383c14.384 28.155 23.715 59.578 32.873 89.765a112.45 112.45 0 0 0 2.554 7.173c1.402 3.818 2.293 7.561 2.977 11.555l.727 3.93c5.964 41.675 1.795 83.926-9.352 124.195l-.827 3.008c-7.7 27.226-22.535 52.636-37.165 76.66-3.834 6.163-3.834 6.163-6.928 12.703-2.163 5.268-5.374 10.025-8.33 14.879l-1.107 1.824c-6.447 10.597-13.194 20.984-20.08 31.301l-1.374 2.062c-6.222 9.317-12.641 18.473-19.188 27.563l-2.812 3.973c-5.135 7.253-10.419 14.361-15.89 21.362l-4.02 5.204c-5.042 6.527-10.252 12.754-15.867 18.805-3.249 3.58-6.273 7.324-9.312 11.082-4.453 5.465-9.11 10.594-14.098 15.574l-3.023 3.199c-7.957 8.35-16.086 14.901-25.977 20.801l-2.307 1.396c-24.609 14.808-50.32 26.002-77.568 34.854l-2.002.652c-10.997 3.565-21.901 6.967-33.436 8.161-3.782.395-7.254.807-10.898 1.902-47.412 12.953-108.702 9.46-156.735 2.339l-6.248-.904c-25.947-3.731-50.723-9.73-75.717-17.512l-13.104-3.998c-14.859-4.461-29.445-9.483-43.984-14.891l-3.255-1.197c-15.793-5.811-31.388-12.048-46.932-18.491l-2.59-1.072-29.128-12.522-12.251-5.317c-11.142-4.69-21.512-10.725-31.953-16.784l-1.933-1.117-5.137-3.004c-2.591-1.528-2.591-1.528-4.729-1.941-2.418-.641-4.217-1.646-6.364-2.926l-2.478-1.475-2.624-1.591-2.713-1.638c-7.004-4.275-13.7-8.85-20.289-13.733-2.146-1.576-4.326-3.103-6.505-4.633-13.074-9.212-26.272-18.627-37.958-29.571-2.374-2.185-4.838-4.211-7.348-6.238-6.53-5.287-12.854-10.802-19.183-16.327l-4.013-3.493-18.57-16.668c-5.382-4.994-10.847-9.776-16.625-14.312-4.306-3.466-8.348-7.217-12.422-10.949l-2.734-2.453c-6.013-5.428-11.839-11.017-17.578-16.734l-1.993-1.979c-4.434-4.448-8.6-9.074-12.695-13.834l-4-4.5-9.148-10.402-8.543-9.41c-2.952-3.436-5.631-7.036-8.309-10.687l-1.519-2.07c-7.686-10.519-15.18-21.152-22.485-31.933l-1.3-1.909c-5.817-8.55-11.374-17.215-16.57-26.157l-2.252-3.797c-6.432-10.686-11.599-21.868-16.628-33.262l-.958-2.165A462.52 462.52 0 0 1 40.504 563.4a265.13 265.13 0 0 0-3.336-8.538c-11.947-29.574-20.128-60.275-26.293-91.517l-2.039-10.132-3.656-18.382-.587-2.974C2.372 420.526.41 409.405.18 397.831l-.078-2.96c-.596-25.28 1.409-50.181 6.078-75.04l.457-3.066c1.555-10.22 5.637-19.431 10.367-28.555 1.157-2.342 2.119-4.69 3.051-7.129 2.326-5.972 5.244-11.631 8.154-17.332l2.955-5.949c3.524-7.17 7.211-14.133 11.313-20.996 1.812-3.163 3.42-6.383 5.016-9.66 3.751-7.619 8.035-14.867 12.398-22.148l3.731-6.356c9.222-15.879 18.814-31.292 30.045-45.835l6.166-8.221c5.263-7.078 10.659-14.008 16.348-20.752l1.374-1.631c9.758-11.56 19.848-22.671 30.632-33.283 4.014-3.991 7.623-8.119 10.955-12.707 5.34-6.23 12.084-11.066 18.727-15.816l2.404-1.721c6.466-4.59 13.018-8.913 19.909-12.842l2.489-1.437c24.118-13.824 49.141-22.827 75.734-30.477l9.96-2.907c21.376-6.179 42.704-9.455 64.958-9.144 5.675.059 11.223-.29 16.874-.8 73.481-5.805 153.975 12.918 223.193 35.842z" fill="#eee"/><path d="M593.388 36.909l8.69 2.801c19.849 6.377 39.212 14.056 58.352 22.309l2.59 1.113c13.649 5.981 26.825 13.015 39.972 20.012l2.095 1.113c14.677 7.809 29.059 16.012 43.171 24.804 2.848 1.725 5.735 3.325 8.672 4.895 6.883 3.7 13.154 8.055 19.438 12.688 4.112 3.018 8.316 5.837 12.625 8.563 11.662 7.404 22.631 15.626 33.429 24.229l5.329 4.185c9.602 7.486 19.017 15.161 28.152 23.215l9.59 8.309 1.853 1.601 1.76 1.512 1.575 1.357c1.431 1.162 2.965 2.195 4.499 3.218v2l1.617.652c3.262 1.845 5.809 4.345 8.508 6.91l3.488 3.266 1.737 1.631c7.312 6.829 14.721 13.742 22.65 19.854l2 1.688v2l1.793.77c2.45 1.366 3.743 2.76 5.52 4.918 2.302 2.724 4.637 5.319 7.188 7.813 3.712 3.663 7.106 7.543 10.5 11.5l2.758 3.164c5.817 6.695 11.405 13.503 16.758 20.574 2.105 2.78 4.264 5.513 6.437 8.241 6.509 8.179 12.623 16.625 18.688 25.137a114.35 114.35 0 0 0 3.031 3.999c1.327 1.881 1.327 1.881 1.327 3.881h2c1.386 1.779 2.681 3.628 3.938 5.5l2.457 3.633 1.299 1.935 3.818 5.55c17.54 25.18 33.673 50.971 47.488 78.383l1.222 2.383c14.384 28.155 23.715 59.578 32.873 89.765a112.45 112.45 0 0 0 2.554 7.173c1.402 3.818 2.293 7.561 2.977 11.555l.727 3.93c5.964 41.675 1.795 83.926-9.352 124.195l-.827 3.008c-7.7 27.226-22.535 52.636-37.165 76.66-3.834 6.163-3.834 6.163-6.928 12.703-2.163 5.268-5.374 10.025-8.33 14.879l-1.107 1.824c-6.447 10.597-13.194 20.984-20.08 31.301l-1.374 2.062c-6.222 9.317-12.641 18.473-19.188 27.563l-2.812 3.973c-5.135 7.253-10.419 14.361-15.89 21.362l-4.02 5.204c-5.042 6.527-10.252 12.754-15.867 18.805-3.249 3.58-6.273 7.324-9.312 11.082-4.453 5.465-9.11 10.594-14.098 15.574l-3.023 3.199c-7.957 8.35-16.086 14.901-25.977 20.801l-2.307 1.396c-24.609 14.808-50.32 26.002-77.568 34.854l-2.002.652c-10.997 3.565-21.901 6.967-33.436 8.161-3.782.395-7.254.807-10.898 1.902-47.412 12.953-108.702 9.46-156.735 2.339l-6.248-.904c-25.947-3.731-50.723-9.73-75.717-17.512l-13.104-3.998c-14.859-4.461-29.445-9.483-43.984-14.891l-3.255-1.197c-15.793-5.811-31.388-12.048-46.932-18.491l-2.59-1.072-29.128-12.522-12.251-5.317c-11.142-4.69-21.512-10.725-31.953-16.784l-1.933-1.117-5.137-3.004c-2.591-1.528-2.591-1.528-4.729-1.941-2.418-.641-4.217-1.646-6.364-2.926l-2.478-1.475-2.624-1.591-2.713-1.638c-7.004-4.275-13.7-8.85-20.289-13.733-2.146-1.576-4.326-3.103-6.505-4.633-13.074-9.212-26.272-18.627-37.958-29.571-2.374-2.185-4.838-4.211-7.348-6.238-6.53-5.287-12.854-10.802-19.183-16.327l-4.013-3.493-18.57-16.668c-5.382-4.994-10.847-9.776-16.625-14.312-4.306-3.466-8.348-7.217-12.422-10.949l-2.734-2.453c-6.013-5.428-11.839-11.017-17.578-16.734l-1.993-1.979c-4.434-4.448-8.6-9.074-12.695-13.834l-4-4.5-9.148-10.402-8.543-9.41c-2.952-3.436-5.631-7.036-8.309-10.687l-1.519-2.07c-7.686-10.519-15.18-21.152-22.485-31.933l-1.3-1.909c-5.817-8.55-11.374-17.215-16.57-26.157l-2.252-3.797c-6.432-10.686-11.599-21.868-16.628-33.262l-.958-2.165A462.52 462.52 0 0 1 40.504 563.4a265.13 265.13 0 0 0-3.336-8.538c-11.947-29.574-20.128-60.275-26.293-91.517l-2.039-10.132-3.656-18.382-.587-2.974C2.372 420.526.41 409.405.18 397.831l-.078-2.96c-.596-25.28 1.409-50.181 6.078-75.04l.457-3.066c1.555-10.22 5.637-19.431 10.367-28.555 1.157-2.342 2.119-4.69 3.051-7.129 2.326-5.972 5.244-11.631 8.154-17.332l2.955-5.949c3.524-7.17 7.211-14.133 11.313-20.996 1.812-3.163 3.42-6.383 5.016-9.66 3.751-7.619 8.035-14.867 12.398-22.148l3.731-6.356c9.222-15.879 18.814-31.292 30.045-45.835l6.166-8.221c5.263-7.078 10.659-14.008 16.348-20.752l1.374-1.631c9.758-11.56 19.848-22.671 30.632-33.283 4.014-3.991 7.623-8.119 10.955-12.707 5.34-6.23 12.084-11.066 18.727-15.816l2.404-1.721c6.466-4.59 13.018-8.913 19.909-12.842l2.489-1.437c24.118-13.824 49.141-22.827 75.734-30.477l9.96-2.907c21.376-6.179 42.704-9.455 64.958-9.144 5.675.059 11.223-.29 16.874-.8 73.481-5.805 153.975 12.918 223.193 35.842zM363.18 10.831a202.85 202.85 0 0 1-7.473.141l-4.63.048-2.454.028c-18.468.247-37.105 1.153-54.483 8.056-3.632 1.348-7.394 2.223-11.147 3.165-20.055 5.188-39.485 11.789-57.824 21.511l-6.368 3.31c-8.135 4.211-16.023 8.608-23.621 13.742l-1.872 1.259-14.128 9.74-2.707 1.875c-27.966 20.374-47.119 65.316-54.293 98.125l-.703 3.18-1.48 7.004a213.54 213.54 0 0 1-1.789 7.664c-5.715 23.187-6.307 47.751-6.277 71.527l.002 2.385c.048 16.474 1.512 32.061 4.935 48.178l.547 2.609c13.715 65.351 39.66 128.534 77.765 183.453l1.547 2.249c9.871 14.324 20.556 28.058 32.453 40.751l3.5 4c3.557 4.094 7.213 8.094 10.875 12.094l5.813 6.603c3.657 4.182 7.5 8.136 11.433 12.057l2.132 2.135 4.435 4.429 6.72 6.727 4.338 4.334 1.996 2.002a228.32 228.32 0 0 0 12.029 11.128c2.219 1.914 4.379 3.889 6.542 5.866 4.289 3.871 8.709 7.539 13.199 11.172 3.396 2.788 6.725 5.645 10.051 8.516 6.528 5.62 13.1 11.155 20.078 16.215l3.234 2.348 2.961 2.102c2.664 2.272 2.664 2.272 4.527 5.19 2.753 3.971 5.969 6.117 9.949 8.77l4.621 3.168 2.335 1.595c2.653 1.843 5.237 3.764 7.819 5.706 8.467 6.365 17.346 11.985 26.347 17.56l7.627 4.846a832.15 832.15 0 0 0 37.005 22.202 622.56 622.56 0 0 1 14.913 8.729c21.242 12.709 43.2 24.368 65.687 34.714 3.998 1.848 7.911 3.851 11.832 5.855 6.892 3.504 13.941 6.473 21.113 9.352 3.182 1.281 6.288 2.676 9.387 4.148 6.484 2.99 13.218 5.251 19.963 7.563l8.392 2.929 6.082 2.133 2.868 1.009c18.603 6.491 37.722 11.35 56.927 15.687 5.912 1.335 11.784 2.751 17.642 4.304 8.462 2.168 17.05 3.346 25.702 4.487 1.926.325 1.926.325 4.926 1.325 1.566.201 3.138.364 4.711.5l2.773.25 2.891.25 5.648.5 2.529.219c2.448.281 2.448.281 4.83.778 13.503 2.595 28.058 1.704 41.743 1.691h3.201c17.304-.02 34.441-.497 51.674-2.187l3.357-.325c56.45-5.66 114.455-28.443 159.906-62.402 2.726-1.998 5.513-3.906 8.291-5.829 11.224-7.801 20.049-15.724 28.171-26.748a163.55 163.55 0 0 1 3.849-4.896c17.333-21.449 26.656-48.5 33.008-74.988.805-3.357 1.643-6.688 2.617-10 2.228-7.817 3.285-15.356 3.895-23.445l.258-3.415c.857-12.382.951-24.75.909-37.157l.013-11.627-.01-7.418.012-3.5-.019-3.203-.01-2.817c-.043-2.433-.043-2.433-2.254-4.229-.623-1.812-.623-1.812-1.148-4l-.602-2.422-.625-2.578c-1.511-6-3.134-11.69-5.602-17.375-1.371-3.516-2.372-7.123-3.398-10.75-2.223-7.797-4.922-15.327-7.854-22.882l-3.833-10.118-.758-2.011-4.68-12.989c-3.269-9.208-7.083-18.151-11.489-26.871l-2.8-5.653c-11.36-23.131-24.7-45.069-39.211-66.352l-1.287-1.898c-6.864-10.124-13.953-20.076-21.155-29.961l-4.335-5.98c-6.651-9.17-13.565-18.122-20.558-27.034l-4.579-5.888c-5.197-6.699-10.551-13.224-16.116-19.622-1.988-2.287-3.923-4.55-5.689-7.015l-1.274-1.603h-2l-.738-1.734c-1.487-2.67-3.243-4.404-5.449-6.516-2.895-2.822-5.65-5.655-8.25-8.75-3.274-3.803-6.876-7.079-10.637-10.395-3.465-3.085-6.853-6.246-10.238-9.418l-3.879-3.625-5.574-5.219c-5.391-5.055-10.77-10.041-16.547-14.656-4.791-3.84-9.239-7.964-13.687-12.187a288.12 288.12 0 0 0-19-16.5l-3.562-2.941c-7.339-6.064-14.8-11.937-22.437-17.621l-2.354-1.768c-5.686-4.188-11.398-7.382-17.959-9.982-7.219-3.061-13.591-7.649-19.437-12.812-8.014-6.755-17.466-11.357-26.607-16.396-4.354-2.437-8.573-5.067-12.803-7.713-34.178-21.25-71.147-38.847-108.842-52.767l-3.455-1.294c-15.644-5.848-31.307-10.866-47.505-14.936l-8.418-2.216C510.234 20.859 468.119 12.193 427.18 9.831l-2.75-.167c-30.963-2.96-30.963-2.96-61.25 1.167z" fill="#c8c8c6"/><path d="M400.18 102.831c16.809-.638 27.08 5.634 39.313 16.625l4.687 4.375 4 3.5 14 12.5 7.438 6.684 5.25 4.789 2.75 2.527 2.434 2.25c1.752 1.583 3.537 3.072 5.392 4.535 8.628 6.819 16.224 14.51 23.924 22.34 11.065 11.3 11.065 11.3 22.813 21.875l4.875 4.438c4.884 4.402 9.951 8.508 15.125 12.563l3.18 2.523c19.231 15.331 19.231 15.331 39.602 29.076 1.718 1.084 3.387 2.248 5.031 3.441 10.67 7.115 20.391 7.092 32.938 6.959l6.132.029 12.302-.007 15.718.083c12.177.14 24.275.239 36.373-1.356 16.183-2.043 32.496-.516 48.65 1.112l9.725.922c26.631 2.557 63.207 6.074 83.35 26.217 11.271 32.54-13.749 74.636-27.572 103.219-4.825 9.881-10.308 19.263-16.097 28.606-2.111 3.451-4.125 6.947-6.081 10.488l-1.922 3.426c-2.361 5.797-1.663 10.555.651 16.182 1.887 3.843 4.274 7.317 6.708 10.83l3.246 4.773 1.593 2.323 5.723 8.528 5.594 8.355c3.592 5.336 7.077 10.719 10.486 16.173 4.872 7.793 9.886 15.402 15.303 22.827 1.992 2.731 3.908 5.507 5.806 8.303 3.846 5.659 7.934 10.986 12.323 16.232 2.281 2.786 4.42 5.645 6.551 8.547 3.821 5.151 7.897 9.998 12.103 14.833 3.507 4.049 6.865 8.185 10.147 12.417 6.27 8.072 12.864 15.849 19.586 23.547 10.761 12.361 10.761 12.361 14.85 19.391l1.125 1.773c1.281 3.26 1.216 6.238 1.25 9.727l.086 3.969c-.461 3.531-.461 3.531-2.109 5.969-6.67 4.432-17.467 1.598-24.977.125-3.805-.799-7.59-1.673-11.375-2.562l-1.913-.448c-45.025-10.585-87.33-25.52-128.888-45.876-12.18-5.958-24.235-11.706-37.124-15.974-1.501-.507-2.991-1.048-4.473-1.608l-2.411-.886-2.181-.829c-2.345-.657-2.345-.657-5.448 1.434l-2.562 2.186h-2l-1 3c-1.496 1.508-1.496 1.508-3.437 3.125l-2.211 1.879-2.352 1.996c-6.649 5.868-13.131 11.91-19.598 17.976-3.211 3.005-6.438 5.972-9.777 8.837-3.666 3.15-7.022 6.571-10.418 10.008-2.565 2.533-5.242 4.888-7.977 7.234-2.789 2.433-5.509 4.937-8.23 7.445l-14 12.5-1.523 1.316c-7.73 6.677-15.472 13.337-23.477 19.684l-2.879 2.297c-9.145 7.018-9.145 7.018-15.121 6.703-15.526-2.523-26.323-11.716-35.449-24.223-9.854-14.842-17.508-31.147-24.543-47.472l-3.289-7.309c-3.691-8.054-7.253-16.077-10.263-24.413-2.939-8.074-6.279-15.989-9.586-23.917-1.99-4.819-3.918-9.57-5.334-14.592-1.901-6.679-4.708-13.001-7.41-19.387l-8.805-21.641c-1.741-4.562-3.506-9.059-5.57-13.484l-1.516-3.371c-5.179-7.397-14.439-11.046-22.297-15.066l-3.072-1.585-8.866-4.54-2.282-1.166c-8.828-4.5-17.762-8.754-26.724-12.979-6.791-3.225-13.424-6.695-20.047-10.25-5.162-2.742-10.388-5.181-15.76-7.48-9.797-4.219-19.038-9.355-28.347-14.547l-11.404-6.238-10.971-5.99-4.627-2.522c-15.7-8.531-30.699-18.259-45.486-28.277a214.15 214.15 0 0 0-9.509-6.069c-21.487-12.91-21.487-12.91-24.843-25.482-.842-5.348.058-9.435 3-14 9.175-10.748 23.172-13.969 36.219-17.852l8.375-2.672c18.451-6.026 37.4-9.686 56.406-13.477l2.039-.407 5.75-1.148 24.818-5.099 18.757-3.776 3.487-.676 6.558-1.245 2.948-.571 2.583-.487c2.262-.468 2.262-.468 4.062-2.591 1.922-8.099.812-16.795.25-25l-.288-4.413c-1.988-29.896-5.199-59.638-8.56-89.407l-.367-3.254-1.932-15.782c-.949-7.175-1.469-14.22-1.478-21.456l-.074-2.971c-.029-7.264 1.576-13.065 4.449-19.717z" fill="#629ad6"/><path d="M593.388 36.909l8.69 2.801c19.849 6.377 39.212 14.056 58.352 22.309l2.59 1.113c13.649 5.981 26.825 13.015 39.972 20.012l2.095 1.113c14.677 7.809 29.059 16.012 43.171 24.804 2.848 1.725 5.735 3.325 8.672 4.895 6.883 3.7 13.154 8.055 19.438 12.688 4.112 3.018 8.316 5.837 12.625 8.563 11.662 7.404 22.631 15.626 33.429 24.229l5.329 4.185c9.602 7.486 19.017 15.161 28.152 23.215l9.59 8.309 1.853 1.601 1.76 1.512 1.575 1.357c1.431 1.162 2.965 2.195 4.499 3.218v2l1.617.652c3.262 1.845 5.809 4.345 8.508 6.91l3.488 3.266 1.737 1.631c7.312 6.829 14.721 13.742 22.65 19.854l2 1.688v2l1.793.77c2.45 1.366 3.743 2.76 5.52 4.918 2.302 2.724 4.637 5.319 7.188 7.813 3.712 3.663 7.106 7.543 10.5 11.5l2.758 3.164c5.817 6.695 11.405 13.503 16.758 20.574 2.105 2.78 4.264 5.513 6.437 8.241 6.509 8.179 12.623 16.625 18.688 25.137a114.35 114.35 0 0 0 3.031 3.999c1.327 1.881 1.327 1.881 1.327 3.881h2c1.386 1.779 2.681 3.628 3.938 5.5l2.457 3.633 1.299 1.935 3.818 5.55c17.54 25.18 33.673 50.971 47.488 78.383l1.222 2.383c14.384 28.155 23.715 59.578 32.873 89.765a112.45 112.45 0 0 0 2.554 7.173c1.402 3.818 2.293 7.561 2.977 11.555l.727 3.93c5.964 41.675 1.795 83.926-9.352 124.195l-.827 3.008c-7.7 27.226-22.535 52.636-37.165 76.66-3.834 6.163-3.834 6.163-6.928 12.703-2.163 5.268-5.374 10.025-8.33 14.879l-1.107 1.824c-6.447 10.597-13.194 20.984-20.08 31.301l-1.374 2.062c-6.222 9.317-12.641 18.473-19.188 27.563l-2.812 3.973c-5.135 7.253-10.419 14.361-15.89 21.362l-4.02 5.204c-5.042 6.527-10.252 12.754-15.867 18.805-3.249 3.58-6.273 7.324-9.312 11.082-4.453 5.465-9.11 10.594-14.098 15.574l-3.023 3.199c-7.957 8.35-16.086 14.901-25.977 20.801l-2.307 1.396c-24.609 14.808-50.32 26.002-77.568 34.854l-2.002.652c-10.997 3.565-21.901 6.967-33.436 8.161-3.782.395-7.254.807-10.898 1.902-47.412 12.953-108.702 9.46-156.735 2.339l-6.248-.904c-25.947-3.731-50.723-9.73-75.717-17.512l-13.104-3.998c-14.859-4.461-29.445-9.483-43.984-14.891l-3.255-1.197c-15.793-5.811-31.388-12.048-46.932-18.491l-2.59-1.072-29.128-12.522-12.251-5.317c-11.142-4.69-21.512-10.725-31.953-16.784l-1.933-1.117-5.137-3.004c-2.591-1.528-2.591-1.528-4.729-1.941-2.418-.641-4.217-1.646-6.364-2.926l-2.478-1.475-2.624-1.591-2.713-1.638c-7.004-4.275-13.7-8.85-20.289-13.733-2.146-1.576-4.326-3.103-6.505-4.633-13.074-9.212-26.272-18.627-37.958-29.571-2.374-2.185-4.838-4.211-7.348-6.238-6.53-5.287-12.854-10.802-19.183-16.327l-4.013-3.493-18.57-16.668c-5.382-4.994-10.847-9.776-16.625-14.312-4.306-3.466-8.348-7.217-12.422-10.949l-2.734-2.453c-6.013-5.428-11.839-11.017-17.578-16.734l-1.993-1.979c-4.434-4.448-8.6-9.074-12.695-13.834l-4-4.5-9.148-10.402-8.543-9.41c-2.952-3.436-5.631-7.036-8.309-10.687l-1.519-2.07c-7.686-10.519-15.18-21.152-22.485-31.933l-1.3-1.909c-5.817-8.55-11.374-17.215-16.57-26.157l-2.252-3.797c-6.432-10.686-11.599-21.868-16.628-33.262l-.958-2.165A462.52 462.52 0 0 1 40.504 563.4a265.13 265.13 0 0 0-3.336-8.538c-11.947-29.574-20.128-60.275-26.293-91.517l-2.039-10.132-3.656-18.382-.587-2.974C2.372 420.526.41 409.405.18 397.831l-.078-2.96c-.596-25.28 1.409-50.181 6.078-75.04l.457-3.066c1.555-10.22 5.637-19.431 10.367-28.555 1.157-2.342 2.119-4.69 3.051-7.129 2.326-5.972 5.244-11.631 8.154-17.332l2.955-5.949c3.524-7.17 7.211-14.133 11.313-20.996 1.812-3.163 3.42-6.383 5.016-9.66 3.751-7.619 8.035-14.867 12.398-22.148l3.731-6.356c9.222-15.879 18.814-31.292 30.045-45.835l6.166-8.221c5.263-7.078 10.659-14.008 16.348-20.752l1.374-1.631c9.758-11.56 19.848-22.671 30.632-33.283 4.014-3.991 7.623-8.119 10.955-12.707 5.34-6.23 12.084-11.066 18.727-15.816l2.404-1.721c6.466-4.59 13.018-8.913 19.909-12.842l2.489-1.437c24.118-13.824 49.141-22.827 75.734-30.477l9.96-2.907c21.376-6.179 42.704-9.455 64.958-9.144 5.675.059 11.223-.29 16.874-.8 73.481-5.805 153.975 12.918 223.193 35.842zM363.18 10.831a202.85 202.85 0 0 1-7.473.141l-4.63.048-2.454.028c-18.468.247-37.105 1.153-54.483 8.056-3.632 1.348-7.394 2.223-11.147 3.165-20.055 5.188-39.485 11.789-57.824 21.511l-6.368 3.31c-8.135 4.211-16.023 8.608-23.621 13.742l-1.872 1.259-14.128 9.74-2.707 1.875c-27.966 20.374-47.119 65.316-54.293 98.125l-.703 3.18-1.48 7.004a213.54 213.54 0 0 1-1.789 7.664c-5.715 23.187-6.307 47.751-6.277 71.527l.002 2.385c.048 16.474 1.512 32.061 4.935 48.178l.547 2.609c13.715 65.351 39.66 128.534 77.765 183.453l1.547 2.249c9.871 14.324 20.556 28.058 32.453 40.751l3.5 4c3.557 4.094 7.213 8.094 10.875 12.094l5.813 6.603c3.657 4.182 7.5 8.136 11.433 12.057l2.132 2.135 4.435 4.429 6.72 6.727 4.338 4.334 1.996 2.002a228.32 228.32 0 0 0 12.029 11.128c2.219 1.914 4.379 3.889 6.542 5.866 4.289 3.871 8.709 7.539 13.199 11.172 3.396 2.788 6.725 5.645 10.051 8.516 6.528 5.62 13.1 11.155 20.078 16.215l3.234 2.348 2.961 2.102c2.664 2.272 2.664 2.272 4.527 5.19 2.753 3.971 5.969 6.117 9.949 8.77l4.621 3.168 2.335 1.595c2.653 1.843 5.237 3.764 7.819 5.706 8.467 6.365 17.346 11.985 26.347 17.56l7.627 4.846a832.15 832.15 0 0 0 37.005 22.202 622.56 622.56 0 0 1 14.913 8.729c21.242 12.709 43.2 24.368 65.687 34.714 3.998 1.848 7.911 3.851 11.832 5.855 6.892 3.504 13.941 6.473 21.113 9.352 3.182 1.281 6.288 2.676 9.387 4.148 6.484 2.99 13.218 5.251 19.963 7.563l8.392 2.929 6.082 2.133 2.868 1.009c18.603 6.491 37.722 11.35 56.927 15.687 5.912 1.335 11.784 2.751 17.642 4.304 8.462 2.168 17.05 3.346 25.702 4.487 1.926.325 1.926.325 4.926 1.325 1.566.201 3.138.364 4.711.5l2.773.25 2.891.25 5.648.5 2.529.219c2.448.281 2.448.281 4.83.778 13.503 2.595 28.058 1.704 41.743 1.691h3.201c17.304-.02 34.441-.497 51.674-2.187l3.357-.325c56.45-5.66 114.455-28.443 159.906-62.402 2.726-1.998 5.513-3.906 8.291-5.829 11.224-7.801 20.049-15.724 28.171-26.748a163.55 163.55 0 0 1 3.849-4.896c17.333-21.449 26.656-48.5 33.008-74.988.805-3.357 1.643-6.688 2.617-10 2.228-7.817 3.285-15.356 3.895-23.445l.258-3.415c.857-12.382.951-24.75.909-37.157l.013-11.627-.01-7.418.012-3.5-.019-3.203-.01-2.817c-.043-2.433-.043-2.433-2.254-4.229-.623-1.812-.623-1.812-1.148-4l-.602-2.422-.625-2.578c-1.511-6-3.134-11.69-5.602-17.375-1.371-3.516-2.372-7.123-3.398-10.75-2.223-7.797-4.922-15.327-7.854-22.882l-3.833-10.118-.758-2.011-4.68-12.989c-3.269-9.208-7.083-18.151-11.489-26.871l-2.8-5.653c-11.36-23.131-24.7-45.069-39.211-66.352l-1.287-1.898c-6.864-10.124-13.953-20.076-21.155-29.961l-4.335-5.98c-6.651-9.17-13.565-18.122-20.558-27.034l-4.579-5.888c-5.197-6.699-10.551-13.224-16.116-19.622-1.988-2.287-3.923-4.55-5.689-7.015l-1.274-1.603h-2l-.738-1.734c-1.487-2.67-3.243-4.404-5.449-6.516-2.895-2.822-5.65-5.655-8.25-8.75-3.274-3.803-6.876-7.079-10.637-10.395-3.465-3.085-6.853-6.246-10.238-9.418l-3.879-3.625-5.574-5.219c-5.391-5.055-10.77-10.041-16.547-14.656-4.791-3.84-9.239-7.964-13.687-12.187a288.12 288.12 0 0 0-19-16.5l-3.562-2.941c-7.339-6.064-14.8-11.937-22.437-17.621l-2.354-1.768c-5.686-4.188-11.398-7.382-17.959-9.982-7.219-3.061-13.591-7.649-19.437-12.812-8.014-6.755-17.466-11.357-26.607-16.396-4.354-2.437-8.573-5.067-12.803-7.713-34.178-21.25-71.147-38.847-108.842-52.767l-3.455-1.294c-15.644-5.848-31.307-10.866-47.505-14.936l-8.418-2.216C510.234 20.859 468.119 12.193 427.18 9.831l-2.75-.167c-30.963-2.96-30.963-2.96-61.25 1.167zm-238 117c-15.581 19.517-29.322 40.497-42 62l-1.655 2.799c-7.646 12.959-15.144 25.99-22.345 39.201l-1.626 2.963c-9.418 17.188-18.252 34.604-26.647 52.313l-5.852 12.036c-5.192 10.617-8.466 20.217-9.6 31.992-.307 3.003-.702 5.989-1.104 8.981-3.915 30.514-3.464 61.289 3.148 91.418.706 3.424 1.178 6.829 1.617 10.297.634 4.686 1.569 9.081 2.875 13.625 2.485 8.787 3.935 17.74 5.437 26.741l.602 3.548.526 3.186c.606 2.821 1.495 5.252 2.623 7.9l2 7 2.938 10.375.764 2.711a331.76 331.76 0 0 0 5.299 16.914l.999 2.945 3.376 9.867 1.133 3.33a292.37 292.37 0 0 0 7.39 19.243c1.268 3.008 2.416 6.05 3.54 9.115 2.017 5.297 4.387 10.281 6.988 15.313 1.39 2.814 2.628 5.655 3.826 8.555 8.875 21.296 21.925 40.558 34.748 59.632l1.683 2.507c12.027 17.864 25.054 34.958 39.771 50.696 2.467 2.709 4.765 5.495 7.047 8.359 4.004 4.98 8.393 9.431 12.953 13.891a96.66 96.66 0 0 1 5.922 6.484c4.532 5.3 9.78 9.861 14.942 14.532l4.804 4.429a319.22 319.22 0 0 0 16.965 14.727c7.668 6.25 15.158 12.715 22.414 19.438 5.649 5.178 11.626 9.86 17.688 14.538l8.999 7.025 1.764 1.384 13.49 10.89c20.793 17.079 42.561 34.328 66.443 46.839 5.345 2.812 10.581 5.791 15.803 8.825l2.481 1.438 9.933 5.906c8.815 5.385 18.196 9.453 27.621 13.636l10.657 4.778c23.441 10.586 23.441 10.586 47.336 20.082l13.781 5.29 4.943 1.924 7.494 2.928c9.98 3.919 19.936 7.494 30.266 10.38 3.924 1.111 7.794 2.327 11.675 3.576 6.623 2.105 13.305 3.892 20.036 5.618 5.292 1.371 10.508 2.901 15.714 4.569 9.049 2.879 17.709 4.576 27.141 5.75 3.452.438 6.884.979 10.32 1.527 7.076 1.098 14.166 1.879 21.289 2.598l3.633.381c17.024 1.744 33.828 2.258 50.93 2.244h3.487c17.425-.013 34.69-.472 52.059-1.905l11.087-.79 7.18-.492 3.288-.214 3.009-.223 2.62-.184c2.343-.261 2.343-.261 4.298-1.367 2.544-1.265 4.719-1.476 7.542-1.758l3.242-.35 6.68-.672c8.977-.972 16.945-3.18 25.332-6.424 2.76-.997 5.553-1.838 8.363-2.684 29.921-9.144 60.443-21.86 85.699-40.652 2.176-1.474 2.176-1.474 5.043-2.747 4.005-2.207 6.56-5.021 9.57-8.414l1.74-1.92 4.823-5.393 1.977-2.207 5.023-5.793 2.77-3.207c13.313-15.438 26.243-31.253 38.113-47.836l5.172-7.133c5.839-7.991 11.494-16.031 16.773-24.402 2.309-3.66 4.703-7.262 7.109-10.859l1.262-1.892 6.304-9.354c6.242-9.211 11.948-18.673 17.496-28.316-4.238 0-6.468 2.386-9.687 4.875-7.204 5.424-14.646 10.267-22.357 14.934l-5.631 3.5c-9.092 5.669-18.544 10.258-28.271 14.729-2.577 1.208-5.096 2.514-7.615 3.837-3.8 1.923-7.573 3.178-11.672 4.313-3.309.972-6.525 2.134-9.766 3.313a230.67 230.67 0 0 1-14.762 4.813c-2.192.673-4.295 1.465-6.426 2.313-2.684 1.052-4.617 1.482-7.562 1.875-3.36.517-4.868 1.118-7.25 3.5v2l-2.156-.586c-3.253-.474-5.217.004-8.344.961-6.844 2.057-13.215 2.877-20.344 3.344-3.038.21-3.038.21-5.512.768-2.711.527-5.348.8-8.101 1.014l-3.123.25-3.232.25-6.332.5-2.823.219c-2.251.209-4.495.486-6.734.8-4.972.633-9.921.662-14.927.685l-3.076.021-9.857.026-3.393.005c-17.171.002-33.972-.698-51.012-2.87l-8.611-.994c-11.031-1.195-11.031-1.195-13.422-2.391a116.9 116.9 0 0 0-4.687-.437c-4.318-.39-8.144-1.35-12.312-2.562-2.229-.283-4.45-.492-6.691-.656-2.311-.35-2.311-.35-5.073-1.284-3.034-.999-6.007-1.641-9.146-2.206-47.877-8.649-94.989-25.43-139.155-45.486l-2.056-.932c-9.482-4.308-18.822-8.862-28.118-13.557l-7.33-3.617c-13.441-6.591-26.472-13.781-39.433-21.268l-4.828-2.777-11.625-6.742-8.395-4.855c-10.946-6.329-21.764-12.798-32.414-19.613l-12.974-8.068c-8.182-5.015-16.111-10.146-23.764-15.945l-4.387-3.211c-27.705-20.232-27.705-20.232-32.945-26.988-2.852-3.08-6.293-5.461-9.644-7.967-4.417-3.317-8.506-6.884-12.571-10.627-2.543-2.288-5.163-4.439-7.828-6.582-4.549-3.677-8.855-7.541-13.129-11.528-3.367-3.121-6.844-6.043-10.434-8.91-2.847-2.289-5.48-4.445-7.75-7.312-1.907-2.371-3.603-4.064-5.898-6.004-4.658-4.027-9.01-8.32-13.352-12.684l-2.322-2.311-2.205-2.209-1.988-1.991c-1.547-1.676-1.547-1.676-2.547-3.676h-2l-.798-1.774c-1.255-2.324-2.609-3.932-4.432-5.835l-1.936-2.039-2.021-2.102c-12.155-12.723-23.388-26.077-33.813-40.25l-2.586-3.457c-14.639-19.635-28.945-40.365-39.414-62.543l-1.918-3.75a245.97 245.97 0 0 1-10.695-23.809c-1.863-4.624-4.048-9.043-6.387-13.441h-2l-.289-2.883c-.7-4.887-2.399-9.372-4.086-13.992l-1.836-5.117-.914-2.541-3.129-9.225-2.359-6.907c-6.241-18.118-10.925-36.433-14.699-55.211l-.772-3.836c-1.868-9.53-3.025-18.775-3.232-28.481l-.063-2.517-.183-7.854-.131-5.369-.307-13.067h2l-.016-2.998-.039-10.992-.021-4.761-.022-6.836-.016-2.156c-.001-5.03-.001-5.03 1.113-7.258.134-1.831.231-3.666.313-5.5.4-5.786 1.352-11.281 2.625-16.937l.515-2.293c.74-3.18 1.54-6.247 2.594-9.34 1.116-3.431 1.681-6.807 2.266-10.367 2.295-13 6.322-27.061 13.398-38.273l1.29-2.289z" fill="#7e7d7d"/><path d="M405.18 79.831c4.484 1.324 8.071 3.493 12 6l4.363 2.648c13.664 8.372 27.439 17.069 39.133 28.09 2.964 2.677 6.085 5.084 9.254 7.512 6.995 5.387 13.383 11.316 19.789 17.381 1.761 1.649 3.568 3.236 5.399 4.806 3.912 3.373 7.669 6.906 11.438 10.438 11.148 10.449 11.148 10.449 22.813 20.313 5.331 4.306 10.283 8.947 15.258 13.652 4.469 4.205 9.088 8.13 13.887 11.957 2.954 2.439 5.749 5.023 8.543 7.641 35.703 33.136 78.386 37.553 125.438 38.125l9.815.143 6.034.08c4.021.059 7.961.17 11.948.717 4.329.554 8.545.669 12.902.709l5.205.079 2.711.04c15.198.245 30.137.596 45.073 3.67l2.42.482c5.226 1.054 10.405 2.239 15.58 3.518l2.777.676c19.574 5.309 40.357 16.508 51.117 34.273 7.662 14.215 6.813 26.621 3.48 41.988l-.82 3.861c-2.135 9.804-4.686 19.393-7.813 28.924l-2.171 6.938c-2.945 9.471-6.678 18.12-11.292 26.885l-7.903 15.642-1.631 3.238-8.068 16.523-1.471 3.108c-2.31 5.645-3.19 10.797-1.345 16.685 1.242 2.846 2.65 5.535 4.141 8.258l1.18 2.539c7.784 16.004 22.209 30.208 34.945 42.461 3.819 3.74 6.955 7.938 10.151 12.203 3.552 4.693 7.448 8.774 11.724 12.797l4 4 7.43 7.395c7.989 7.899 15.16 16.243 22.232 24.963l4.416 5.377c44.604 54.21 44.604 54.21 43.48 84.348-.58 3.027-1.035 4.212-3.309 6.23-5.927 3.078-11.624 3.025-18.23 3.406-2.897-.054-2.897-.054-4.02 1.281-11.603.84-22.767.051-34.187-2.125l-3.049-.569c-15.255-3.126-29.702-8.907-44.015-14.911l-12.768-5.29-2.581-1.065c-22.327-9.203-44.874-17.443-67.848-24.879l-9.99-3.373c-4.62-1.544-9.072-2.613-13.875-3.414-3.823-.647-7.468-1.308-11.18-2.434-7.656-2.055-17.309-2.449-24.695.809-6.174 3.644-11.244 8.899-16.363 13.861-1.829 1.752-3.72 3.422-5.637 5.077l-11.34 10.098c-2.954 2.646-5.956 5.234-8.977 7.805-1.614 1.359-1.614 1.359-2.496 3.41h-2l-.645 1.664c-1.827 3.149-4.351 5.319-7.043 7.711l-3.535 3.199-1.872 1.689-7.623 7.123c-5.695 5.376-11.47 10.517-17.604 15.395-3.039 2.516-5.879 5.196-8.742 7.906-4.272 4.018-8.628 7.276-13.781 10.094-2.206 1.176-2.206 1.176-4.187 2.813-5.237 3.741-12.762 3.283-18.959 2.753-6.055-1.045-11.116-4.841-16.009-8.347l-1.826-1.281c-8.371-5.952-15.086-12.383-21.176-20.719l-2.043-2.785-4.008-5.574c-1.798-2.436-3.71-4.673-5.699-6.953-9.824-12.174-16.438-27.039-21.537-41.721-1.27-3.503-2.747-6.917-4.213-10.341l-11.5-27.5-.925-2.241-11.588-29.374c-1.526-4.078-3.139-8.03-5.049-11.948-2.952-6.212-4.803-12.798-6.845-19.349-3.442-12.595-3.442-12.595-9.674-23.803-1.919-2.411-1.919-2.411-2.349-4.43-.849-2.953-2.969-3.738-5.532-5.177l-2.101-1.117-2.183-1.191c-6.718-3.603-13.634-6.639-20.653-9.598-3.642-1.556-7.245-3.2-10.852-4.835l-19.723-8.809c-16.128-7.124-32.184-14.333-48.038-22.054l-7.403-3.485c-10.924-5.059-21.469-10.637-31.965-16.531l-8.058-4.371c-5.55-3.025-10.907-6.341-16.263-9.694l-5.725-3.501c-12.751-7.769-24.1-16.465-35.074-26.618l-5.125-4.625-2.5-2.254-6.5-5.684c-11.462-10.076-20.468-20.68-21.5-36.5.196-5.352 1.287-8.219 5.125-11.941 15.502-12.377 32.227-19.991 51.375-24.871l6.109-1.574 3.061-.787 10.691-2.816c7.14-1.899 14.281-3.701 21.502-5.272 2.807-.647 2.807-.647 5.66-1.645 3.439-1.144 6.89-1.998 10.414-2.844a410.49 410.49 0 0 0 17.688-4.75l2.064-.599c3.376-1.001 6.675-2.097 9.96-3.366 5.014-1.92 10.184-3.122 15.391-4.41 3.478-1.031 6.399-2.348 9.586-4.062l2.066-.76c3.492-2.238 3.54-6.006 4.385-9.855.874-5.382.948-10.63.862-16.072l-.03-3.603c-.278-20.122-1.448-40.356-3.981-60.322l-1.865-15.388-.398-3.353c-.862-7.488-1.47-14.949-1.749-22.481.161-3.372.161-3.372-1.291-6.166-.087-1.708-.107-3.419-.098-5.129l.01-3.135.025-3.299.014-3.311.049-8.126h2l.734-3.324 1.016-4.363.477-2.186c3.263-13.743 13.402-14.677 25.773-13.127zm-5 23c-3.227 7.558-4.622 13.945-4.426 22.145l.04 3.128c.231 10.497 1.401 20.851 2.779 31.25l1.669 13.088.82 6.488c2.657 20.905 4.637 41.881 6.118 62.901l.143 2.011.9 13.228.292 4.335c1.178 17.149 1.178 17.149-.335 23.426-2.58 2.58-4.342 2.649-7.914 3.332l-3.711.723-4 .757-6.155 1.197-4.167.809-18.991 3.869-18.312 3.75c-33.407 6.236-33.407 6.236-66.008 15.602-3.016 1.057-6.056 1.981-9.117 2.898-20.745 5.688-20.745 5.688-35.625 20.063-2.338 7.013-1 11.889 2.125 18.313 5.599 8.025 12.954 12.984 21.25 17.938l6.438 3.938 3.188 1.949c4.194 2.605 8.289 5.343 12.375 8.113 14.257 9.583 28.923 18.103 44.107 26.128a525.18 525.18 0 0 1 21.018 11.747c10.181 5.953 20.817 10.821 31.551 15.672 5.678 2.581 11.257 5.324 16.825 8.132l14.133 6.93c15.089 7.226 30.121 14.487 44.652 22.802l5.013 2.795c8.349 4.696 11.48 10.365 15.203 18.919l1.055 2.397c2.452 5.638 4.678 11.333 6.776 17.11 2.236 6.111 4.774 12.082 7.403 18.034 1.895 4.38 3.437 8.754 4.797 13.33 2.068 6.9 4.695 13.487 7.469 20.129l2.773 6.711 1.417 3.415 3.615 9.009c3.327 8.421 6.947 16.687 10.695 24.928l.928 2.048c4.514 9.954 9.141 19.823 14.197 29.515l1.977 3.93c6.635 13.049 17.764 30.623 32.027 36.465 6.344 1.924 12.518 3.651 18.996 1.605 7.86-4.729 14.694-11.058 21.594-17.062 2.914-2.53 5.893-4.964 8.906-7.375 5.676-4.603 10.972-9.576 16.297-14.574 2.339-2.193 4.708-4.337 7.141-6.426 8.004-6.917 15.607-14.309 23.309-21.559l2.123-1.996 4-3.77c3.156-2.968 6.345-5.881 9.615-8.723 4.726-4.106 9.265-8.401 13.811-12.705l1.912-1.799 1.702-1.611c1.587-1.402 1.587-1.402 4.587-3.402v-2c8.29-4.464 8.29-4.464 13.34-3.094l3.598 1.594 3.527 1.531 2.049.909c2.517 1.073 5.059 2.068 7.609 3.059 8.035 3.136 15.74 6.754 23.453 10.606 14.756 7.348 29.682 13.965 45.01 20.041l9.945 3.999c21.758 8.706 44.1 15.196 66.844 20.73l2.031.495c21.558 5.907 21.558 5.907 43.594 6.13 2.49-1.464 2.49-1.464 4-4 1.225-6.761 1.137-14.045-2.312-20.125-4.037-5.741-8.734-11.026-13.34-16.314-1.93-2.236-3.797-4.52-5.66-6.811l-11.688-14.25-13.871-16.914-4.477-5.359c-6.395-7.56-12.355-15.378-18.245-23.334l-3.888-5.158c-5.126-6.74-9.876-13.656-14.52-20.734l-2.477-3.703-11.022-16.798-8.187-12.562-1.261-1.887-5.576-8.318c-18.327-27.273-18.327-27.273-17.476-36.733 1.219-3.202 2.829-6.138 4.5-9.125l1.387-2.558c2.527-4.613 5.177-9.121 7.988-13.567 12.824-20.389 22.624-42.577 30.938-65.125l1.383-3.744c6.065-16.057 6.065-16.057 8.804-32.881l.156-3.535c.245-10.133.245-10.133-3.156-19.465-3.822-3.501-8.012-5.742-12.625-8l-2.165-1.064c-5.626-2.725-11.22-5.118-17.21-6.936l-1.961-.597c-12.879-3.841-25.698-5.952-39.039-7.403l-2.24-.247-15.683-1.663-5.302-.553c-9.51-.998-18.943-1.697-28.509-1.713l-2.433-.005c-5.213.043-10.292.494-15.458 1.18-12.249 1.475-24.533 1.23-36.846 1.052-5.397-.066-10.781-.002-16.177.114-41.446.831-41.446.831-57.096-12.292-2.349-1.952-4.776-3.711-7.276-5.464-4.755-3.352-9.38-6.85-13.98-10.41l-1.903-1.46-12.097-9.539-2.039-1.64c-8.571-6.916-16.926-13.98-24.934-21.543-2.145-2.024-4.351-3.949-6.598-5.859-6.667-5.8-12.748-12.248-18.931-18.554-6.443-6.562-12.909-12.771-20.116-18.499-3.059-2.445-5.901-5.039-8.758-7.717l-3.285-3.062-1.661-1.555-20.48-18.672-5.305-4.672c-12.402-10.989-23.959-20.675-41.309-20.285z" fill="#f0f0f0"/><path d="M439.912 84.423l6.975 4.232c10.556 6.398 19.993 13.584 29.381 21.579 2.774 2.317 5.647 4.49 8.537 6.66 11.181 8.528 21.557 17.968 31.745 27.649 4.443 4.217 8.993 8.285 13.63 12.288l1.782 1.546c5.666 4.908 11.336 9.805 17.218 14.454 8.32 6.582 16.34 13.551 24.188 20.688 12.588 11.38 26.5 23.488 42.625 29.313l4.082 1.5 1.808.656c1.352.496 2.698 1.01 4.027 1.563 5.011 2.024 9.68 2.959 15.044 3.484l2.506.265 8.096.782 2.85.269c13.955 1.289 27.478 1.586 41.485.963 38.267-1.682 76.472-2.244 114.198 5.116l8.232 1.499c18.742 3.315 18.742 3.315 24.86 5.903v2l3.41.242c5.148.65 9.402 2.616 14.027 4.883l2.547 1.232c5.952 2.953 11.078 6.175 16.016 10.643l2.469 1.906c8.14 6.571 14.364 14.423 15.963 24.93 1.453 16.43-1.536 31.579-6.432 47.164l-1.317 4.25c-5.423 17.387-10.912 34.712-19.684 50.749l-1.014 1.874c-2.895 5.307-5.987 10.493-9.135 15.653l-2.227 3.66-1.111 1.826c-3.705 6.163-7.028 12.518-10.328 18.906l-1.217 2.355-1.08 2.107c-.888 1.619-.888 1.619-1.888 2.619-1.775 11.245 5.911 22.741 12.191 31.676 9.123 11.723 19.259 22.881 29.809 33.324l7.875 7.813 2.066 2.041c3.998 3.979 7.81 8.051 11.471 12.343 1.627 1.849 3.329 3.581 5.087 5.304 2.413 2.37 4.673 4.807 6.875 7.375 2.591 3.01 5.298 5.836 8.125 8.625a170.7 170.7 0 0 1 9.703 10.426c1.971 2.276 4.008 4.483 6.047 6.699 4.546 5.039 8.714 10.319 12.863 15.684 1.913 2.468 3.867 4.891 5.867 7.289 7.682 9.252 14.059 18.963 20.02 29.402l1.157 2.017c7.117 12.534 14.043 25.61 13.906 40.295l-.027 3.801-.035 2.886h2c-1.973 6.332-6.476 8.78-12 12-30.283 11.292-70.907-1.289-100-11l-3.243-1.08c-17.979-6.053-35.555-12.95-53.057-20.262a744.74 744.74 0 0 0-29.7-11.659l-3.991-1.498c-36.534-16.437-36.534-16.437-74.419-17.639-8.284 4.467-15.474 11.467-22.641 17.512-2.418 2.015-4.904 3.939-7.387 5.875-6.095 4.954-11.529 10.586-17.019 16.192-4.116 4.194-8.299 8.204-12.78 12.009-1.784 1.566-3.433 3.212-5.076 4.924-3.693 3.76-7.752 6.994-11.852 10.297-4.416 3.625-8.611 7.484-12.836 11.328-6.577 5.923-13.335 11.283-20.75 16.125-3.123 2.044-5.655 4.18-8.25 6.875-9.47 3.157-21.854 1.633-30.715-2.785-11.959-6.311-23.165-14.164-32.284-24.214l-1.656-1.75c-5.448-5.943-9.996-12.481-14.344-19.25l-1.56-2.42c-10.08-15.873-17.254-32.302-23.973-49.781l-11.6-28.904-11.406-29.016c-1.408-3.796-2.937-7.538-4.467-11.286-2.805-6.88-5.477-13.725-7.619-20.843-1.654-5.492-3.414-10.922-5.375-16.312l-.682-1.948c-2.861-7.713-6.608-12.824-13.943-16.677l-2.062-1.12c-9.947-5.262-20.355-9.61-30.666-14.097l-18.147-8.096-21.77-9.707-3.586-1.582-6.613-2.902c-7.259-3.202-14.353-6.67-21.432-10.245l-11.958-5.923c-14.247-6.999-28.212-14.152-41.666-22.606l-8.307-5c-14.76-8.759-27.837-18.177-40.348-29.895l-8.195-7.516-2.453-2.215c-1.715-1.509-3.496-2.943-5.297-4.348-7.126-6.351-12.099-13.848-15.875-22.562l-1.312-2.875c-1.267-5.758-2.058-12.376.629-17.766 6.393-8.958 15.364-14.798 24.683-20.358l1.764-1.062c19.972-11.607 45.449-15.688 67.699-20.896 15.523-3.646 30.711-8.299 45.838-13.327 5.486-1.799 10.864-3.225 16.54-4.272 2.692-.552 5.135-1.428 7.659-2.505l2.469-1.035c2.955-1.14 2.955-1.14 4.872-3.466 2.622-7.216 2.575-14.139 2.472-21.749l-.03-4.104c-.182-17.326-1.237-34.68-3.783-51.826-.768-5.776-1.24-11.576-1.715-17.382-.439-5.176-1.063-10.277-1.832-15.415-1.091-8.008-1.258-15.905-1.214-23.979l-.013-7.126c-.014-11.388.582-20.273 6.898-29.98l1.353-2.106c4.745-7.171 9.928-13.1 18.49-15.46 15.856-1.933 31.349 7.226 44.263 15.284zm-58.904 2.294l-.578 1.801-.66 2.043c-1.054 4.055-1.871 8.143-2.59 12.27h-2l-.062 11.438-.025 3.299-.01 3.135-.016 2.904c-.137 2.198-.137 2.198 1.114 3.225.168 2.482.283 4.952.375 7.438.352 7.609 1.084 15.127 2 22.688 2.584 21.507 5.105 43.207 5.625 64.875l.083 3.314.167 11.124.065 3.521c.028 7.446-.255 15.134-3.315 22.042-1.955 1.258-1.955 1.258-4 2l-2.453 1.148c-7.175 3.146-14.279 5.159-21.867 6.957-4.337 1.054-8.481 2.398-12.68 3.895-8.856 3.152-17.405 5.686-26.66 7.324-3.251.658-6.196 1.624-9.34 2.676l-11.062 2.75c-10.673 2.628-21.232 5.555-31.782 8.633-2.789.798-5.596 1.521-8.406 2.242-4.847 1.322-9.26 3.13-13.75 5.375l-3.062 1.531c-7.473 3.878-14.411 8.136-20.937 13.469l-2.016 1.641c-3.492 3.362-4.418 6.152-4.672 10.984.938 17.03 11.84 28.377 23.687 39.375 2.505 2.071 5.052 4.069 7.625 6.055 2.36 1.933 4.404 3.981 6.5 6.195 10.652 10.874 23.902 18.948 36.874 26.747l3.848 2.34c12.967 7.855 26.107 15.292 39.59 22.223l1.919.99c7.933 4.09 15.879 8.122 24.016 11.794l9.261 4.328c10.272 4.887 20.676 9.441 31.117 13.95l10.047 4.352 2.426 1.053 17.001 7.688c3.181 1.47 6.39 2.865 9.61 4.248 6.482 2.804 12.888 5.74 19.104 9.097l3.34 1.785c3.406 2.693 4.241 5.115 5.723 9.152l3 5c3.444 7.64 6.2 15.372 8.437 23.438 1.778 6.368 4.037 12.279 6.776 18.29 2.379 5.246 4.462 10.563 6.474 15.96 6.156 16.417 13.051 32.541 19.832 48.707l.884 2.107 4.232 10.07 1.552 3.69 1.477 3.511 3.386 8.532c1.972 4.958 4.444 9.533 7.137 14.133l1.469 2.519c3.24 5.445 6.726 10.392 10.906 15.168 1.941 2.289 3.729 4.583 5.5 7 10.521 14.349 22.936 24.875 38.936 32.875 18.424 1.158 28.327-6.225 42-18l9.223-8.437c2.884-2.66 5.82-5.247 8.781-7.82 5.954-5.197 11.801-10.455 17.324-16.109 2.335-2.281 4.842-4.33 7.387-6.371l1.285-1.263v-2h2a135.59 135.59 0 0 0 5-5c6.154-6.237 12.317-12.328 19-18l3.359-2.918 3.703-3.207 1.751-1.525c7.991-6.883 14.108-11.723 25.061-11.6l2.066-.023 2.051.008 1.824.007c3.167.375 6.121 1.381 9.184 2.259l7.453 1.309c8.386 1.493 16.263 3.968 24.297 6.754l4.341 1.479 10.881 3.755 5.672 1.951c22.087 7.563 43.622 16.44 65.197 25.336 17.72 7.311 17.72 7.311 36.16 12.415l2.323.538c13.282 3.061 26.047 4.283 39.677 3.462l1-1 6.625-.375c6.315-.411 10.854-1.033 16.02-4.836 3.214-4.242 1.87-10.792 1.355-15.789-5.131-22.471-19.196-43.751-33.629-61.314-1.854-2.279-3.647-4.603-5.445-6.927-8.438-10.883-17.407-21.28-26.83-31.321-2.353-2.512-4.625-5.056-6.795-7.726-2.084-2.763-2.084-2.763-4.676-4.086-4.002-2.477-6.635-6.033-9.625-9.625l-2.875-3.312a191.47 191.47 0 0 1-5.043-6.113c-4.265-5.368-8.686-10.283-13.582-15.074-4.802-4.704-9.209-9.542-13.383-14.824-1.441-1.821-2.917-3.615-4.422-5.383-5.409-6.365-9.839-12.88-13.695-20.293l-1.355-2.594c-2.959-6.382-3.188-11.567-1.645-18.406 2.161-5.552 4.801-10.819 7.5-16.125l2.207-4.449c3.677-7.4 7.47-14.73 11.418-21.989 4.103-7.546 7.144-15.304 9.875-23.437l1.266-3.715c13.549-39.426 13.549-39.426 7.449-79.016-8.748-15.717-24.002-23.93-39.715-31.27l-3.23-1.547c-9.331-3.924-19.906-5.397-29.77-7.453l-2.601-.549c-14.885-3.001-30.058-2.937-45.184-3.161l-2.651-.041-4.942-.059a101.17 101.17 0 0 1-12.493-.958c-4.282-.464-8.587-.43-12.89-.477l-6.334-.1-9.824-.131c-56.576-.719-92.844-11.45-134.888-49.547l-8.152-7.184-6.664-5.98c-4.002-3.616-8.078-7.132-12.187-10.625-6.36-5.415-12.511-11.028-18.617-16.726l-10.668-9.805-5.711-5.25a336.45 336.45 0 0 0-16.309-14.059l-9.385-7.849-4.951-4.187-4.256-3.625c-10.737-9.015-22.424-16.717-34.426-23.934-3.011-1.842-5.933-3.794-8.867-5.754-5.667-3.665-11.066-4.429-17.687-4.562l-2.197-.081c-6.171.042-9.929 2.122-13.288 7.53z" fill="#7f7e7e"/><path d="M400.18 102.831c16.809-.638 27.08 5.634 39.313 16.625l4.687 4.375 4 3.5 14 12.5 7.438 6.684 5.25 4.789 2.75 2.527 2.434 2.25c1.752 1.583 3.537 3.072 5.392 4.535 8.628 6.819 16.224 14.51 23.924 22.34 11.065 11.3 11.065 11.3 22.813 21.875l4.875 4.438c4.884 4.402 9.951 8.508 15.125 12.563l3.18 2.523c19.231 15.331 19.231 15.331 39.602 29.076 1.718 1.084 3.387 2.248 5.031 3.441 10.67 7.115 20.391 7.092 32.938 6.959l6.132.029 12.302-.007 15.718.083c12.177.14 24.275.239 36.373-1.356 16.183-2.043 32.496-.516 48.65 1.112l9.725.922c26.631 2.557 63.207 6.074 83.35 26.217 11.271 32.54-13.749 74.636-27.572 103.219-4.825 9.881-10.308 19.263-16.097 28.606-2.111 3.451-4.125 6.947-6.081 10.488l-1.922 3.426c-2.361 5.797-1.663 10.555.651 16.182 1.887 3.843 4.274 7.317 6.708 10.83l3.246 4.773 1.593 2.323 5.723 8.528 5.594 8.355c3.592 5.336 7.077 10.719 10.486 16.173 4.872 7.793 9.886 15.402 15.303 22.827 1.992 2.731 3.908 5.507 5.806 8.303 3.846 5.659 7.934 10.986 12.323 16.232 2.281 2.786 4.42 5.645 6.551 8.547 3.821 5.151 7.897 9.998 12.103 14.833 3.507 4.049 6.865 8.185 10.147 12.417 6.27 8.072 12.864 15.849 19.586 23.547 10.761 12.361 10.761 12.361 14.85 19.391l1.125 1.773c1.281 3.26 1.216 6.238 1.25 9.727l.086 3.969c-.461 3.531-.461 3.531-2.109 5.969-6.67 4.432-17.467 1.598-24.977.125-3.805-.799-7.59-1.673-11.375-2.562l-1.913-.448c-45.025-10.585-87.33-25.52-128.888-45.876-12.18-5.958-24.235-11.706-37.124-15.974-1.501-.507-2.991-1.048-4.473-1.608l-2.411-.886-2.181-.829c-2.345-.657-2.345-.657-5.448 1.434l-2.562 2.186h-2l-1 3c-1.496 1.508-1.496 1.508-3.437 3.125l-2.211 1.879-2.352 1.996c-6.649 5.868-13.131 11.91-19.598 17.976-3.211 3.005-6.438 5.972-9.777 8.837-3.666 3.15-7.022 6.571-10.418 10.008-2.565 2.533-5.242 4.888-7.977 7.234-2.789 2.433-5.509 4.937-8.23 7.445l-14 12.5-1.523 1.316c-7.73 6.677-15.472 13.337-23.477 19.684l-2.879 2.297c-9.145 7.018-9.145 7.018-15.121 6.703-15.526-2.523-26.323-11.716-35.449-24.223-9.854-14.842-17.508-31.147-24.543-47.472l-3.289-7.309c-3.691-8.054-7.253-16.077-10.263-24.413-2.939-8.074-6.279-15.989-9.586-23.917-1.99-4.819-3.918-9.57-5.334-14.592-1.901-6.679-4.708-13.001-7.41-19.387l-8.805-21.641c-1.741-4.562-3.506-9.059-5.57-13.484l-1.516-3.371c-5.179-7.397-14.439-11.046-22.297-15.066l-3.072-1.585-8.866-4.54-2.282-1.166c-8.828-4.5-17.762-8.754-26.724-12.979-6.791-3.225-13.424-6.695-20.047-10.25-5.162-2.742-10.388-5.181-15.76-7.48-9.797-4.219-19.038-9.355-28.347-14.547l-11.404-6.238-10.971-5.99-4.627-2.522c-15.7-8.531-30.699-18.259-45.486-28.277a214.15 214.15 0 0 0-9.509-6.069c-21.487-12.91-21.487-12.91-24.843-25.482-.842-5.348.058-9.435 3-14 9.175-10.748 23.172-13.969 36.219-17.852l8.375-2.672c18.451-6.026 37.4-9.686 56.406-13.477l2.039-.407 5.75-1.148 24.818-5.099 18.757-3.776 3.487-.676 6.558-1.245 2.948-.571 2.583-.487c2.262-.468 2.262-.468 4.062-2.591 1.922-8.099.812-16.795.25-25l-.288-4.413c-1.988-29.896-5.199-59.638-8.56-89.407l-.367-3.254-1.932-15.782c-.949-7.175-1.469-14.22-1.478-21.456l-.074-2.971c-.029-7.264 1.576-13.065 4.449-19.717zm3 7c-.766 3.356-.658 6.635-.562 10.063l.046 3.087c.281 9.967 1.806 19.666 3.38 29.495 3.802 23.991 5.664 48.287 7.715 72.476l.513 5.904c3.986 45.742 3.986 45.742.908 54.976l-2 1-1 3-2.209.396c-12.772 2.298-25.5 4.622-38.108 7.706-9.044 2.206-18.161 3.999-27.309 5.711l-25.937 5.25-3.493.743c-14.142 2.975-14.142 2.975-27.945 7.194l-3.402 1.219-7.062 2.563c-4.874 1.68-9.697 3.127-14.785 3.969-7.587 1.637-15.094 5.971-20.75 11.25-2.219 4.437-1.515 10.582-.504 15.328 1.569 4.645 3.761 7.428 7.504 10.672l1.504 1.508c5.037 4.846 10.778 8.138 16.8 11.589 4.878 2.803 9.604 5.746 14.259 8.904 12.175 8.233 24.651 15.801 37.506 22.921l7.521 4.297c5.171 2.987 10.367 5.8 15.735 8.411 2.551 1.307 5.021 2.719 7.497 4.163 11.932 6.926 24.445 12.708 36.881 18.659l13.235 6.546c5.073 2.567 10.196 5.004 15.355 7.391 15.875 7.347 31.565 14.812 46.707 23.609l2.152 1.198c8.553 4.968 12.6 11.472 16.41 20.427l1.171 2.678c2.96 6.826 5.69 13.717 8.267 20.697l2.563 6.688 1.254 3.262 4.168 10.496 3.266 8.43 7.456 18.907 5.751 14.5c3.892 9.927 7.806 19.729 12.726 29.197 2.204 4.243 4.152 8.552 6.005 12.96 7.2 16.783 14.888 33.441 27.813 46.563l2.473 2.699c4.516 4.803 7.948 7.94 14.809 8.48 8.597-1.181 13.908-6.995 20.029-12.647 2.399-2.175 4.912-4.196 7.44-6.22 8.174-6.649 15.847-13.847 23.569-21.009 2.892-2.676 5.809-5.306 8.806-7.866 4.216-3.638 8.081-7.613 11.969-11.594 2.811-2.815 5.803-5.397 8.809-8 3.513-3.087 6.893-6.312 10.285-9.531l4.477-4.227 2.216-2.091c25.208-23.722 25.208-23.722 30.62-24.495 4.745.199 8.561 2.029 12.848 3.953 4.379 1.854 8.835 3.346 13.34 4.859 8.751 2.988 17.004 6.618 25.291 10.701 3.338 1.629 6.712 3.179 10.084 4.736 3.605 1.671 7.184 3.369 10.723 5.176 14.101 7.078 29.128 12.515 43.835 18.201l4.463 1.737c10.731 4.195 10.731 4.195 21.942 6.775 2.65.484 5.044 1.514 7.537 2.509 9.337 3.262 19.345 5.133 29.012 7.125a217.1 217.1 0 0 1 6.883 1.578c8.406 2.019 16.905 3.302 25.543 2.148 2.738-4.107 2.716-7.177 2-12-3.773-10.764-11.885-18.954-19.457-27.18-4.025-4.464-7.775-9.139-11.543-13.82l-12.989-15.688c-8.648-10.137-16.808-20.619-24.757-31.312l-4.789-6.25c-4.468-5.706-8.687-11.453-12.5-17.625-2.511-3.994-5.145-7.898-7.777-11.812-4.746-7.08-9.321-14.249-13.812-21.492l-7.062-11.195-1.123-1.757c-2.188-3.395-4.487-6.676-6.877-9.931-6.002-8.521-10.265-17.39-10.312-27.937h-2a293.96 293.96 0 0 1 14.188-26.375c12.16-20.207 22.397-41.606 30.695-63.68 1.013-2.671 2.085-5.307 3.18-7.945 2.026-5.008 3.573-10.135 5.105-15.312.825-2.689.825-2.689 1.825-4.689.946-6.752 1.155-13.626 1.313-20.437l.113-3.996c-.495-4.145-1.503-5.654-4.426-8.566-2.65-1.922-5.13-3.455-8-5l-1.708-.919c-20.057-10.596-41.522-13.875-63.98-15.143l-8.012-.473-3.526-.199c-2.774-.267-2.774-.267-4.774-1.267-12.317-1.596-24.942-1.595-37.278-.278-15.646 1.634-31.262 1.514-46.969 1.416l-11.126-.04-21.627-.098 1 15 6.688 1.5 3.762.844c2.975.55 5.544.794 8.551.656l3-9 5-1-.937 4.25-.527 2.391-1.537 6.359 7.313 3.5 2.092 1.012c4.116 1.961 4.116 1.961 8.596 2.488l3-6h4c-.458 3.469-.891 6.674-2 10l1.906 1.469c13.827 10.828 27.348 24.624 30.453 42.613.567 6.224-1.688 9.863-5.457 14.699-7.035 8.206-18.069 13.48-28.91 14.387-27.608.255-53.571-8.25-73.867-27.48-4.869-5.052-8.268-10.298-11.125-16.687l-1.133-2.277c-1.218-3.824-1.208-7.419-1.18-11.41l.013-2.429c.164-8.607 1.651-16.105 7.3-22.884 8.915-6.934 18.021-8.289 29-8l1-4.75.563-2.672c.549-2.8.549-2.8.438-6.578l-2.711-.078c-26.574-1.248-49.28-22.048-69.291-37.923l-2.902-2.281c-9.554-7.556-18.813-15.47-27.824-23.664l-6.461-5.68c-3.781-3.293-7.305-6.796-10.812-10.375l-2.281-2.281-5.988-6.023c-6.07-6.125-12.132-12.141-18.732-17.696-7.877-6.698-15.589-13.415-22.82-20.812-2.539-2.548-5.203-4.889-7.937-7.223a189.89 189.89 0 0 1-5.172-4.711c-14.631-14.867-14.631-14.867-32.695-23.754-3.514.74-4.929 1.837-7.375 4.5z" fill="#7a7c80"/><path d="M438.18 88.831l2.162 1.355c8.082 5.1 15.464 10.659 22.667 16.934 3.081 2.67 6.289 5.137 9.547 7.586 9.766 7.393 18.894 15.555 27.875 23.875a215.93 215.93 0 0 0 11.5 9.938c3.271 2.631 6.327 5.3 9.25 8.313 3.713 3.818 7.728 7.114 11.875 10.449 8.017 6.488 15.746 13.363 23.375 20.301 4.169 3.778 8.476 7.349 12.859 10.875 2.515 2.066 4.947 4.202 7.378 6.365 10.931 9.611 23.863 17.861 37.512 23.01l2.922 1.109c8.269 2.838 16.473 3.856 25.12 4.617l10.314 1.059c18.588 1.964 37.336 3.618 56.004 1.699 6.528-.647 13.024-.556 19.578-.484l7.152.063 3.152.035c2.461-.087 4.4-.466 6.758-1.098 3.059-.22 6.121-.19 9.188-.187h2.664c21.135.181 21.135.181 27.149 3.187l7.313.813c14.909 1.642 29.452 4.442 43.688 9.188 2.554.709 4.773 1.084 7.438 1.375 3.577.628 5.685 1.445 8.563 3.625v2l2 .25c11.558 2.89 22.22 12.146 29 21.75 6.367 11.148 8.919 23.862 5.813 36.375l-.84 3.027a190.96 190.96 0 0 0-2.039 8.289c-7.089 31.6-19.653 59.657-36.059 87.434-12.268 18.938-12.268 18.938-14.305 40.504 3.634 11.245 10.019 21.438 18.137 29.934 2.453 2.607 4.682 5.331 6.918 8.125 5.83 7.623 5.83 7.623 13.375 13.313v2l3 1c1.561 1.566 1.561 1.566 3.219 3.563 3.631 4.278 7.422 8.366 11.281 12.438l4.223 4.473 2.149 2.274 26.125 28.249 1.676 1.891 5.324 6.109 1.292 1.483c7.062 8.112 13.892 16.361 20.448 24.888l3.525 4.473c10.786 13.813 20.708 29.778 26.422 46.406l1.199 3.453 1.114 3.297 1.113 2.949c1.724 5.933 2.845 14.454-.211 20.066-8.163 7.227-22.046 6.146-32.215 6.109l-3.225.012c-19.35-.024-19.35-.024-22.463-3.137l2.136-.044 9.739-.268 3.359-.068c9.288-.301 17.981-1.009 24.891-7.807l2.258-2.168 1.618-1.644-1-3-.312-6c-.483-6.619-2.052-11.945-4.687-18l-1.176-2.836c-6.928-15.897-15.838-30.773-26.825-44.164l-2.75-3.547a307.65 307.65 0 0 0-17.25-20.453l-5.297-6.051-3.656-4.117-1.922-2.145-1.742-1.926c-1.383-1.761-1.383-1.761-2.383-4.761l-1.73-.836c-3.184-1.633-5.246-4.148-7.582-6.789l-1.487-1.651-7.513-8.536c-8.821-10.141-18.144-19.832-27.801-29.176-3.218-3.155-5.662-6.055-7.887-10.011-1.488-1.582-1.488-1.582-3.125-3-9.245-9.01-18.479-22.848-20.437-35.687.08-7.071 4.181-13.183 7.456-19.248 2.75-5.129 5.29-10.368 7.87-15.583l2.728-5.416c14.636-28.85 28.019-62.996 27.759-95.878l.023-3.021c-.029-10.872-3.843-20.869-11.461-28.854-10.96-10.029-24.461-18.285-38.813-22.314v-2l-25-5v-1c-34.278-7.517-67.313-8.768-102.253-8.105-16.895.319-33.562.51-50.361-1.567l-3.769-.453c-12-1.682-23.806-5.348-34.617-10.875l-2.203-1.125c-12.498-6.953-23.32-17.258-33.797-26.875l-14.562-12.625-7.438-6.375-1.891-1.62c-8.337-7.152-16.517-14.44-24.551-21.93l-13.558-12.45-2.48-2.266c-5.406-4.904-10.914-9.679-16.468-14.414a482.53 482.53 0 0 1-11.305-9.918c-1.783-1.503-1.783-1.503-4.137-2.797-2.937-1.807-5.247-3.907-7.797-6.23-6.569-5.772-13.803-10.508-21.125-15.25l-1.712-1.109-10.976-7.016-2.418-1.543c-12.266-7.772-24.084-10.851-38.582-11.457 12.477-14.349 37.685 4.862 49 12z" fill="#b6b6b6"/><path d="M437.375 300.644c26.541-.917 50.313 9.482 69.805 27.188 11.176 10.549 20.759 22.135 21.375 38.188-.075 6.157-1.742 10.841-5.375 15.813-15.116 11.967-41.524 10.635-59.574 8.574-18.81-3.258-36.096-14.21-48.426-28.574-2.003-2.886-3.56-5.801-5-9l-1.145-2.383c-4.518-9.674-5.688-20.143-2.23-30.43 3.479-8.298 7.462-13.594 15.82-17.289 4.946-1.739 9.562-1.782 14.75-2.086z" fill="#fbfbfb"/><path d="M683.18 386.831c4.038 8.076-.505 18.999-3 27l-1.062 3.465c-4.434 12.948-13.719 23.98-25.937 30.285-27.233 12.678-59.17 4.736-86.339-4.827-6.124-2.239-12.072-4.78-17.974-7.548l-2.333-1.091c-4.845-2.346-9.028-5.084-13.354-8.284l-3.625-2.062c-7.91-4.541-7.91-4.541-9.125-8.191-.506-2.244-.924-4.469-1.25-6.746 5.68-6.372 11.025-7.402 19.403-7.887 20.071-.872 39.619.3 59.53 2.612 6.137.798 6.137.798 11.524-1.537l2.542-2.189a115.59 115.59 0 0 1 6.688-3l3.449-1.437 1.849-.745 4.311-1.799c6.147-2.575 12.255-4.362 18.765-5.769l3.02-.653c10.938-2.215 22.204-3.399 32.918.403z" fill="#030101"/><path d="M624.18 283.831l3.02-.004c18.14.388 40.875 11.621 53.98 24.004 1.832 1.919 3.564 3.877 5.254 5.922 1.732 2.113 1.732 2.113 3.711 4.094 6.431 6.665 13.228 16.109 13.723 25.734-.719 7.713-3.771 14.261-9.687 19.25-2.771 1.483-5.63 2.627-8.562 3.75l-2.287.918c-14.676 5.819-31.827 3.805-46.385-1.879-15.904-7.213-33.897-19.04-40.766-35.789l-.949-2.023c-3.741-9.107-3.388-20.636-.078-29.832 3.116-6.505 7.744-10.3 14.266-13.273 4.957-1.564 9.633-1.225 14.762-.871z" fill="#fafafa"/><path d="M400.18 102.831l5.875-.062 3.305-.035c2.82.097 2.82.097 4.82 1.097l-1 3-3.375.375c-3.656.272-3.656.272-5.625 2.625-.499 3.284-.38 6.62-.375 9.938l.005 3.115c.136 8.834 1.273 17.345 2.668 26.056 4.028 25.182 6.127 50.614 8.281 76.013l.513 5.904c1.179 13.532 2.112 27.005 2.174 40.593l.025 3.307-.016 3.048-.012 2.661c-.281 2.532-.988 4.18-2.263 6.367h-2l-1 4-2.209.396c-12.772 2.298-25.5 4.622-38.108 7.706-9.044 2.206-18.161 3.999-27.309 5.711l-25.937 5.25-3.493.743c-14.142 2.975-14.142 2.975-27.945 7.194l-3.402 1.219-7.062 2.563c-4.874 1.68-9.697 3.127-14.785 3.969-7.341 1.596-16.62 5.841-20.75 12.25-1.112 6.98.163 12.644 3 19l1 3a68.82 68.82 0 0 0 4 2 70.86 70.86 0 0 1 3.25 2.828c3.652 3.205 7.521 5.558 11.75 7.922 5.653 3.24 11.169 6.593 16.563 10.25 12.175 8.233 24.651 15.801 37.506 22.921l7.521 4.297c5.171 2.987 10.367 5.8 15.735 8.411 2.551 1.307 5.021 2.719 7.497 4.163 11.932 6.926 24.445 12.708 36.881 18.659l13.235 6.546c5.073 2.567 10.196 5.004 15.355 7.391 15.876 7.348 31.559 14.82 46.707 23.609l2.117 1.163c8.875 5.105 13.611 12.241 17.508 21.524l1.157 2.664c2.934 6.812 5.649 13.691 8.218 20.648l2.563 6.688 1.254 3.262 4.168 10.496 3.266 8.43 7.456 18.907 5.751 14.5c3.892 9.927 7.806 19.729 12.726 29.197 2.204 4.243 4.152 8.552 6.005 12.96 7.198 16.781 14.889 33.437 27.811 46.561l2.25 2.477c4.259 4.566 7.382 7.361 13.852 7.602 8.662-.734 14.139-6.941 20.208-12.546 2.399-2.175 4.912-4.196 7.44-6.22 8.174-6.649 15.847-13.847 23.569-21.009 2.892-2.676 5.809-5.306 8.806-7.866 4.216-3.638 8.081-7.613 11.969-11.594 2.811-2.815 5.803-5.397 8.809-8 3.513-3.087 6.893-6.312 10.285-9.531l4.477-4.227 2.216-2.091c25.208-23.722 25.208-23.722 30.62-24.495 4.745.199 8.561 2.029 12.848 3.953 4.379 1.854 8.835 3.346 13.34 4.859 8.751 2.988 17.004 6.618 25.291 10.701 3.338 1.629 6.712 3.179 10.084 4.736 3.605 1.671 7.184 3.369 10.723 5.176 14.101 7.078 29.128 12.515 43.835 18.201l4.463 1.737c10.731 4.195 10.731 4.195 21.942 6.775 2.65.484 5.044 1.514 7.537 2.509 10.439 3.647 21.64 5.6 32.438 7.852l7.875 1.688 6.123 1.313-2 1v2c-10.487-1.87-20.855-4.016-31.187-6.625l-2.068-.521c-38.178-9.675-74.208-23.869-109.545-41.178-12.18-5.958-24.235-11.706-37.124-15.974-1.501-.507-2.991-1.048-4.473-1.608l-2.411-.886-2.181-.829c-2.345-.657-2.345-.657-5.448 1.434l-2.563 2.187h-2l-1 3c-1.496 1.508-1.496 1.508-3.437 3.125l-2.211 1.879-2.352 1.996c-6.649 5.868-13.131 11.91-19.598 17.976-3.211 3.005-6.438 5.972-9.777 8.837-3.666 3.15-7.022 6.571-10.418 10.008-2.565 2.533-5.242 4.888-7.977 7.234-2.789 2.433-5.509 4.937-8.23 7.445l-14 12.5-1.523 1.316c-7.73 6.677-15.472 13.337-23.477 19.684l-2.879 2.297c-9.145 7.018-9.145 7.018-15.121 6.703-15.526-2.523-26.323-11.716-35.449-24.223-9.854-14.842-17.508-31.147-24.543-47.472l-3.289-7.309c-3.691-8.054-7.253-16.077-10.263-24.413-2.939-8.074-6.279-15.989-9.586-23.917-1.99-4.819-3.918-9.57-5.334-14.592-1.901-6.679-4.708-13.001-7.41-19.387l-8.805-21.641c-1.741-4.562-3.506-9.059-5.57-13.484l-1.516-3.371c-5.179-7.397-14.439-11.046-22.297-15.066l-3.072-1.585-8.866-4.54-2.282-1.166c-8.828-4.5-17.762-8.754-26.724-12.979-6.791-3.225-13.424-6.695-20.047-10.25-5.162-2.742-10.388-5.181-15.76-7.48-9.797-4.219-19.038-9.355-28.347-14.547l-11.404-6.238-10.971-5.99-4.627-2.522c-15.7-8.531-30.699-18.259-45.486-28.277a214.15 214.15 0 0 0-9.509-6.069c-21.487-12.91-21.487-12.91-24.843-25.482-.842-5.348.058-9.435 3-14 9.175-10.748 23.172-13.969 36.219-17.852l8.375-2.672c18.451-6.026 37.4-9.686 56.406-13.477l2.039-.407 5.75-1.148 24.818-5.099 18.757-3.776 3.487-.676 6.558-1.245 2.948-.571 2.583-.487c2.262-.468 2.262-.468 4.062-2.591 1.922-8.099.812-16.795.25-25l-.288-4.413c-1.988-29.896-5.199-59.638-8.56-89.407l-.367-3.254-1.932-15.782c-.949-7.175-1.469-14.22-1.478-21.456l-.074-2.971c-.029-7.264 1.576-13.065 4.449-19.717z" fill="#7b7d7f"/><path d="M618.18 301.831l1.434 3.254c4.34 9.472 8.219 16.459 18.125 20.891 4.686 1.642 8.498 1.139 13.191-.27 3.817-2.202 4.463-3.961 6.25-7.875 1.75-1.062 1.75-1.062 4-1 5.183 1.696 8.605 3.595 12 8 3.63 7.663 5.205 14.213 2.875 22.5-1.955 5.33-4.76 9.58-9.656 12.598-9.068 3.995-18.713 2.002-27.656-1.223l-2.767-.969c-15.96-5.713-28.593-12.91-36.108-28.656-1.563-7.388-1.919-14.973 2.059-21.625 4.576-5.93 9.369-6.08 16.254-5.625zm-183 19c2.178 2.765 3.187 5.576 4.25 8.875 2.315 6.391 7.768 11.331 13.727 14.473 5.092 1.642 10.69 1.361 15.762-.18 3.178-1.641 3.723-4.024 5.262-7.168 3.3-1.418 5.62-.848 8.938.313 5.239 2.207 6.969 5.025 9.125 10.152l.936 2.535 1.094 2.625c1.71 4.48 1.499 7.836-.227 12.316-5.25 11.201-5.25 11.201-10.867 14.059-17.216 3.622-34.352-2.08-49-11-7.011-4.632-13.71-10.09-16.492-18.324-.715-3.769-.875-7.47-.945-11.301l-.068-2.208c.022-5.155 1.138-8.071 4.505-12.167 4.542-3.293 8.538-4.961 14-3z" fill="#040404"/><path d="M619.93 422.394l3.699.021c13.991.247 26.081 2.845 38.551 9.417-4.877 9.088-14.392 14.085-24 17-12.472 3.172-24.127 1.968-36.687-.187l-1.991-.334c-10.07-1.7-19.746-3.883-29.321-7.478 2.949-7.413 13.021-10.837 19.948-13.824 9.719-3.746 19.463-4.704 29.802-4.614z" fill="#ca2020"/><path d="M505.18 319.831l2.578 1.863c12.966 9.847 24.706 22.6 27.422 39.137.93 7.862.756 13.746-4.227 20.133-9.503 10.005-23.485 12.855-36.852 13.266a439.65 439.65 0 0 1-7.172-.023l-3.82-.026c-24.133-.377-46.014-6.829-64.93-22.349l-2.398-1.945c-8.294-7.445-14.157-18.163-15.477-29.242-.393-2.679-.393-2.679-2.125-4.812-4.993-2.531-10.589-3.582-16.055-4.602-1.944-.4-1.944-.4-4.944-1.4v-2l3.289.84 4.336 1.098 2.16.553c4.055 1.023 8.074 1.889 12.215 2.51l-.062-3.312c.062-3.689.062-3.689 1.062-6.689l-1.625-.156c-8.979-1.3-16.472-5.628-24.375-9.844 4.142-1.381 6.819.201 10.688 1.75l2.068.805 4.132 1.619 10.112 3.826.313-2.187c.747-3.057 1.968-5.196 3.688-7.812l-1.746-.324c-2.573-.771-4.184-1.865-6.316-3.488l-2.035-1.52c-1.969-1.726-3.409-3.524-4.902-5.668 4.741.492 7.469 1.692 11.25 4.563 3.061 2.607 3.061 2.607 6.75 3.438l1.438-2.25c21.676-23.263 75.045-.733 95.563 14.25zm-90-13c-7.676 8.894-10.588 17.183-10.289 28.859.406 4.416 1.544 8.088 3.289 12.141l.879 2.27c7.243 17.789 23.182 28.83 40.277 36.219 19.62 7.974 47.356 7.507 67.031-.363 5.36-2.706 9.139-6.336 11.309-12.051 2.343-9.645-.2-19.136-4.746-27.699-14.77-23.159-38.317-37.944-64.699-44.059-12.394-2.399-32.836-4.628-43.051 4.684z" fill="#0b0b0b"/><path d="M919.18 556.831c3.426.569 4.816 1.52 7 4.188l1.828 2.191 2.172 2.621 2.734 3.152c6.576 7.559 12.9 15.276 19.006 23.219l3.525 4.473c10.786 13.813 20.708 29.778 26.422 46.406l1.199 3.453 1.114 3.297 1.113 2.949c1.724 5.933 2.845 14.454-.211 20.066-8.163 7.227-22.046 6.146-32.215 6.109l-3.225.012c-19.35-.024-19.35-.024-22.463-3.137l2.136-.044 9.739-.268 3.359-.068c9.288-.301 17.981-1.009 24.891-7.807l2.258-2.168 1.618-1.644-1-3-.312-6c-.483-6.619-2.052-11.945-4.687-18l-1.176-2.836c-6.928-15.897-15.838-30.773-26.825-44.164l-2.75-3.547c-4.935-6.393-9.928-12.462-15.668-18.172-2.057-2.967-2.025-4.74-1.582-8.281z" fill="#b6b6b6"/><path d="M626.18 270.831h4v12l4.438.375c4.982.49 9.7 1.449 14.563 2.625l.297-1.898.453-2.477.422-2.461c.827-2.164.827-2.164 2.78-3.516 2.047-.648 2.047-.648 4.047.352.316 5.261-.334 8.446-3 13l1.652.516c5.632 1.81 10.987 3.988 16.348 6.484l2-6 5-1c1.263 4.293.63 6.878-1 11l1.652 1.215c14 10.554 27.621 24.986 30.707 42.867.564 6.188-1.643 9.822-5.391 14.633-7.501 8.707-18.365 14.482-29.977 15.453-27.744.256-54.187-8.366-74.367-27.98-5.079-5.12-8.712-10.556-11.625-17.187l-1.129-2.273c-1.222-3.826-1.212-7.42-1.184-11.414l.015-2.431c.179-9.095 1.885-17.087 8.298-23.882 7.977-6.243 16.614-8.771 26.625-7.562l2.376.561.184-2.152.254-2.785.246-2.777c.316-2.286.316-2.286 1.316-3.286zm-27.437 21.188c-6.36 8.414-6.377 18.671-5.562 28.813.618 3.244 1.603 6.016 3 9l.82 2.051c7.856 16.917 27.552 29.32 44.43 35.574 7.107 1.993 14.421 2.732 21.75 3.375l2.645.328c10.489.786 22.727-4.654 31.355-10.328 1.795-2.132 1.795-2.132 2.875-4.5l1.18-2.281c2.641-6.199 3.046-12.089.805-18.461-4.356-9.491-10.491-16.469-17.861-23.759l-2.43-2.496c-6.079-5.922-12.056-10.192-19.633-14.066l-2.812-1.447c-11.576-5.854-21.998-9.715-35.125-9.991l-3.129-.223c-8.959-.446-15.991 1.86-22.309 8.41z" fill="#0a0b0b"/><path d="M438.18 88.831l2.162 1.355c8.082 5.1 15.464 10.659 22.667 16.934 3.081 2.67 6.289 5.137 9.547 7.586 9.766 7.393 18.894 15.555 27.875 23.875a215.93 215.93 0 0 0 11.5 9.938c3.271 2.631 6.327 5.3 9.25 8.313 3.713 3.818 7.728 7.114 11.875 10.449 8.017 6.488 15.746 13.363 23.375 20.301 4.169 3.778 8.476 7.349 12.859 10.875 2.515 2.066 4.947 4.202 7.378 6.365 10.931 9.611 23.863 17.861 37.512 23.01l2.922 1.109c5.937 2.038 11.77 3.237 18.004 3.871l2.327.247 31.872 2.897 6.402.551 15.473 1.324v1a112.63 112.63 0 0 1-17.52.938c-2.333.059-4.253.398-6.48 1.063v2l-1.922-.402c-6.643-1.257-13.151-1.827-19.891-2.098-33.208-1.372-53.281-14.557-77.187-36.5l-14.562-12.625-7.438-6.376-1.891-1.62c-8.337-7.152-16.517-14.44-24.551-21.93l-13.558-12.45-2.48-2.266c-5.406-4.904-10.914-9.679-16.468-14.414a482.53 482.53 0 0 1-11.305-9.918c-1.783-1.503-1.783-1.503-4.137-2.797-2.937-1.807-5.247-3.907-7.797-6.23-6.569-5.772-13.803-10.508-21.125-15.25l-1.712-1.109-10.976-7.016-2.418-1.543c-12.266-7.772-24.084-10.851-38.582-11.457 12.477-14.349 37.685 4.862 49 12z" fill="#adadac"/><path d="M977.18 636.831h2c5.272 11.08 8.788 21.57 7 34-2.108 3.827-5.375 4.768-9.375 6.25-8.032 1.662-15.758 1.904-23.937 1.875l-3.225.012c-19.35-.024-19.35-.024-22.463-3.137l2.136-.044 9.739-.268 3.359-.068c9.152-.296 17.913-1.09 24.953-7.494l2.293-1.992c1.823-2.047 1.823-2.047 1.191-4.672l-.671-2.462 1.063-3.5c1.067-3.982.553-4.888-1.062-8.5.375-2.812.375-2.812 1-5l3 1 1-3h2v-3z" fill="#c9c9c9"/><path d="M714.18 580.831c2.496.625 2.496.625 6 2l5.098 1.813c12.871 4.688 25.249 9.953 37.528 16.016 19.222 9.484 39.003 17.563 58.985 25.295l4.474 1.742c10.73 4.194 10.73 4.194 21.94 6.774 2.65.484 5.044 1.514 7.537 2.509 10.439 3.647 21.64 5.6 32.438 7.852l7.875 1.688 6.125 1.311-2 1v2c-10.487-1.87-20.855-4.016-31.187-6.625l-2.068-.521c-38.178-9.675-74.208-23.869-109.545-41.178-12.254-5.993-24.364-11.564-37.275-15.981-3.037-1.096-5.972-2.388-8.924-3.694l3-2z" fill="#808387"/><path d="M620.18 236.831l2.578.402a205.87 205.87 0 0 0 22.609 2.035c7.646.283 14.494 1.197 21.813 3.563l-1-3c3.69-.863 7.029-1.079 10.813-1 3.496.034 6.853.007 10.313-.5 8.345-1.077 15.881-.345 24.107 1.345 13.024 2.571 26.508 2.397 39.733 2.673 7.841.214 15.339.953 23.035 2.482-3.447 2.298-4.752 2.27-8.812 2.25l-3.082.016c-3.462-.127-6.785-.705-10.198-1.279-8.019-1.158-15.877-1.189-23.966-1.076l-7.918.072-22.489.209c-18.672.218-37.176.355-55.729-2.012l-3.919-.499c-6.348-.906-12-2.121-17.886-4.68v-1z" fill="#c2c2c2"/><path d="M754.368 234.644l2.659-.002c8.48.067 16.77.973 25.153 2.189l-3 1c-1.108 1.883-1.108 1.883-2 4l-2 3-2.319-.201c-8.538-.703-17.056-1.062-25.619-1.299-26.447-.734-26.447-.734-38.437-3.062l-2.266-.42-5.359-1.018c4.487-4.487 13.836-3.056 19.84-3.062l7.098.063 7.152.063 3.152.035c5.377-.19 10.464-1.289 15.946-1.285z" fill="#a4a4a4"/><path d="M590.18 221.831c4.315.557 7.864 2.214 11.773 4.012 2.686 1.192 5.419 2.125 8.227 2.988l2-2 2.648 1.023c6.768 2.455 13.18 4.331 20.383 5.008l2.304.236 7.665.733 2.83.262 21.295 1.863 6.402.551 15.473 1.324v1a112.63 112.63 0 0 1-17.52.938c-2.333.059-4.253.398-6.48 1.063v2l-1.922-.402c-6.643-1.257-13.151-1.827-19.891-2.098-19.595-.81-40.98-3.414-55.187-18.5z" fill="#a4a4a3"/><path d="M835.18 455.831c2.519 2.519 3.46 5.065 4.938 8.313 3.53 7.382 8.249 13.105 13.696 19.147 2.137 2.409 4.154 4.912 6.179 7.416 3.335 4.097 6.727 8.133 10.188 12.125-4.971.399-7.261-.412-11.187-3.437-3.64-2.77-3.64-2.77-7.812-4.562l-1.25-2.125c-1.568-2.576-2.907-4.087-5.062-6.125-9.137-8.962-9.137-8.962-9.988-14.82.05-1.978.175-3.955.301-5.93a69.95 69.95 0 0 0-1.125-4.375l-.878-3.627z" fill="#aeaeae"/><path d="M446.868 94.456l1.907 1.252c4.282 2.876 4.282 2.876 5.405 5.123-4.66-.729-8.281-3.581-12.135-6.117-3.325-2.126-6-3.234-9.865-3.883-2.316-1.086-2.316-1.086-4.562-2.375l-2.254-1.273c-2.184-1.352-2.184-1.352-4-2.852-2.971-2.041-6.148-3.067-9.559-4.125l-2.113-.663c-6.809-2.011-13.409-2.59-20.512-2.712 14.087-16.2 45.397 9.525 57.688 17.625z" fill="#a7a7a6"/><path d="M1015.18 760.831l2 1-4.687 8-1.318 2.254c-2.916 4.968-5.914 9.878-8.994 14.746l-1-2c-2.527-.656-2.527-.656-5-1l-1-4-7 2c1.34-4.021 3.919-5.097 7.375-7.187 10.358-6.2 10.358-6.2 19.625-13.812z" fill="#b3b2b1"/><path d="M620.18 236.831l2.578.402a205.87 205.87 0 0 0 22.609 2.035c7.646.283 14.494 1.197 21.813 3.563l-1-3c3.998-.956 7.708-1.104 11.813-1.062l3.52.027 2.667.035v6c-13.816.517-27.299-.103-41-1.812l-2.087-.251c-7.363-.9-14.113-1.91-20.913-4.937z" fill="#b5b5b5"/><path d="M590.18 221.831c4.315.557 7.864 2.214 11.773 4.012 2.686 1.192 5.419 2.125 8.227 2.988l2-2 2.965 1.059c8.524 3.062 8.524 3.062 17.41 4.629l3.625.312 1 2c-4.565.841-9.111 1.321-13.73 1.719-2.431.226-2.431.226-5.27 1.281-2.277-.785-2.277-.785-4.937-2.062l-2.941-1.41-3.122-1.528-3.215-1.496c-5.437-2.587-9.929-4.822-13.785-9.504z" fill="#aaa"/><path d="M435.18 90.831c5.444 1.289 9.185 4.178 13.621 7.41 2.367 1.747 2.367 1.747 5.441 2.527 3.936 1.424 6.256 3.863 9.281 6.707a79.69 79.69 0 0 0 6.125 4.93l1.801 1.316 3.565 2.52c1.638 1.195 1.638 1.195 4.166 3.59.371 2.801.371 2.801 0 5l-2.187-1.812c-2.651-2.167-2.651-2.167-5.145-3.523-3.036-1.894-5.504-4.088-8.168-6.477-6.747-5.92-14.14-10.762-21.691-15.591l-2.672-1.725-2.415-1.533-1.722-1.339z" fill="#a6a6a6"/><path d="M723.618 235.581l2.367-.065c3.431-.02 5.749.048 8.73 1.831l1.465 1.484-1 4c-11.566-.42-22.649-1.741-34-4 4.867-4.867 15.806-3.147 22.438-3.25z" fill="#a9a9a9"/><path d="M828.18 447.831l1 2h5c1.125 6.625 1.125 6.625 0 10 .314 2.134.314 2.134.938 4.375.802 3.298 1.283 6.209 1.063 9.625-5.783-5.269-9.912-12.936-10.875-20.75l-.126-3.25h3z" fill="#bfbfbf"/><path d="M808.18 972.831c-10.217 3.479-20.232 5.975-30.893 7.641-2.267.387-4.507.86-6.756 1.34-6.321 1.282-12.692 1.963-19.102 2.645l-3.555.406c-8.281.892-16.37 1.126-24.695.969v-1l2.516-.244c23.217-.061 23.217-.061 43.484-5.756a82.05 82.05 0 0 1 4.418-.613l2.784-.339 2.986-.36c8.058-1.015 15.514-2.44 23.23-5.016 2.583-.673 2.583-.673 5.583.327z" fill="#969594"/><path d="M375.18 102.831h2l1 7h1c.635 7.889 1.125 15.773 1.25 23.688l.078 3.949c-.343 3.513-.919 4.859-3.328 7.363l-.184-3.902-.254-5.035-.119-2.576-.127-2.451-.111-2.269c-.023-1.79-.023-1.79-1.205-2.766-.087-1.708-.107-3.419-.098-5.129l.01-3.135.025-3.299.014-3.311z" fill="#d2d2d2"/><path d="M698.18 247.831l16.956-.055 5.742-.021c9.861-.044 19.708-.014 29.56.454l2.292.093c5.212.29 5.212.29 7.45 2.528-20.778.228-41.3.093-62-2v-1z" fill="#989898"/><path d="M722.18 241.831l16.431.317 5.574.104c10.163.175 20.028.393 29.995 2.578-6.244 4.163-15.256 2.213-22.375 1.063-10.128-1.623-20.388-1.737-30.625-2.062z" fill="#bcbcbc"/><path d="M651.18 235.831c13.439-.325 26.631.667 40 2v1a112.63 112.63 0 0 1-17.52.938c-2.333.059-4.253.398-6.48 1.063v2c-5.426-.556-10.254-2.352-15-5l-1-2z" fill="#a5a5a5"/><path d="M118.18 142.831c1 2 1 2 .074 4.941l-1.387 3.621c-2.035 5.433-3.606 10.736-4.687 16.438l-2-1v-2c-3.524 2.546-3.524 2.546-6 6h-2c.613-3.044 1.594-5.175 3.313-7.75 1.744-2.69 3.265-5.348 4.625-8.25 2.133-4.424 5.009-8.173 8.063-12z" fill="#bfbfbd"/><path d="M626.18 270.831h4v12l10 1v2l-7.75-.437-2.211-.119c-3.466-.205-6.692-.529-10.039-1.443v-2h4l.184-2.152.254-2.785.246-2.777c.316-2.287.316-2.287 1.316-3.287z" fill="#040404"/><path d="M620.18 236.831l2.578.402c8.433 1.229 16.756 1.927 25.278 2.168 5.452.194 10.965.586 16.144 2.43l1 2c-8.158.194-16.087-.369-24.187-1.312l-3.404-.357c-6.263-.717-11.623-1.808-17.408-4.33v-1z" fill="#bdbdbd"/><path d="M417.18 76.831l-3 3-1.688-.974c-2.586-1.148-4.478-1.337-7.296-1.44l-2.832-.117-2.934-.094-2.98-.117-7.27-.258c7.36-7.758 19.51-4.126 28 0z" fill="#c2c2c1"/><path d="M41.18 490.831c.337 3.703.477 5.395-1.875 8.375-2.125 1.625-2.125 1.625-4.125 1.625l1 3-2 2c-2.003-3.004-2.493-4.71-3.125-8.187l-.508-2.73-.367-2.083c4-2.069 6.564-3.377 11-2z" fill="#b2b2b0"/><path d="M29.18 470.831l2 3h2l1-2 5 1-1 4h-2l-1 2-3-1-2 7 5 1v2h-4l-2 4-3-19z" fill="#b3b2b1"/><path d="M590.18 221.831c4.315.557 7.864 2.214 11.773 4.012 2.686 1.192 5.419 2.125 8.227 2.988l2-2 .813 2.375c1.036 2.906 1.036 2.906 4.188 4.625v3l-2.145-.863-5.617-2.18c-7.099-2.777-13.332-6.096-19.239-10.957z" fill="#a8a8a7"/><path d="M435.18 90.831c5.435 1.287 9.171 4.166 13.598 7.395 2.689 1.797 5.336 2.633 8.402 3.605 1.875 2.125 1.875 2.125 3 4l-2 3-1.984-1.469a345.37 345.37 0 0 0-18.777-12.867l-2.239-1.664z" fill="#9b9b9a"/><path d="M69.18 235.831h2c-1.714 9.714-1.714 9.714-5 13l-.937 2.813c-1.036 3.108-2.302 5.441-4.062 8.188l-1.687 2.813-1.314 2.186c-1-2-1-2-.18-4.469 2.52-5.855 5.127-11.619 8.066-17.277 1.173-2.375 2.159-4.784 3.113-7.254z" fill="#bcbcba"/><path d="M749.664 234.698l2.586-.004 2.68.012 2.633-.012c5.296.008 10.377.369 15.617 1.137v1l-8.062 1.125-2.279.34c-5.2.675-8.686.13-13.658-1.465-2.609.894-2.609.894-5 2-2.812-.375-2.812-.375-5-1 3.116-3.116 6.215-3.127 10.484-3.133z" fill="#949494"/><path d="M835.18 455.831c2.365 2.365 3.275 4.571 4.625 7.625l1.352 3.039 1.023 2.336-4-1 2 9c-4.64-3.557-5.083-7.547-6-13l-.75-3.437-.25-2.563z" fill="#a6a6a6"/><path d="M452.18 406.831c5.737 1.288 9.466 3.206 14 7v3c-6.465-.166-10.304-4.003-15-8z" fill="#0c0c0d"/><path d="M786.18 960.831h2l-.562 2.875c-.724 3.024-.724 3.024.563 5.125l-4.687 1-2.637.563c-2.613.427-5.034.514-7.676.438l-1-3c3.094-.994 4.903-.878 8 0l1.242-1.531 1.633-1.969 1.617-1.969z" fill="#bcbbb9"/><path d="M1.18 370.831h1l.063 9.375.025 2.695.01 2.578.016 2.38c-.114 1.972-.114 1.972-1.114 3.972h2l-1 8-2 1-.055-12.335-.021-4.199-.022-6.024-.016-3.666c.114-2.776.114-2.776 1.114-3.776z" fill="#939292"/><path d="M385.18 331.831l9 2-2 1v2h-2l-2 4h-4v-2l-3 1 1-3h2z" fill="#5388c2"/><path d="M410.18 399.831c5.036.103 7.329.899 10.938 4.5 3.062 3.285 3.062 3.285 3.062 4.5-5.723-.234-8.464-1.725-12.715-5.527-1.285-1.473-1.285-1.473-1.285-3.473z" fill="#0a0b0c"/><path d="M636.18 232.831h2l1 6c-12.67.369-12.67.369-18-2v-1l2.773-.148 3.602-.227 3.586-.211c3.145-.116 3.145-.116 5.039-2.414z" fill="#969696"/><path d="M434.18 406.831c5.261.385 9.313 2.226 13 6v3c-5.659-1.245-8.834-2.935-13-7z" fill="#0c0d0e"/><path d="M715.18 374.831c6.661 1.033 11.517 3.086 17 7l-2 2c-11.402-4.362-11.402-4.362-15-7z" fill="#0a0b0c"/><path d="M747.18 248.144l3.102.107 2.961.131 2.723.115c2.214.334 2.214.334 4.214 2.334h-25l-1-2c3.878-1.939 8.754-.883 13-.687z" fill="#939393"/><path d="M831.18 458.831l3 1c1.693 4.381 2.302 9.326 2 14-4.933-4.604-4.933-4.604-6-8 .375-3.75.375-3.75 1-7z" fill="#c5c5c5"/><path d="M737.18 367.831c6.508.995 11.467 2.391 17 6v2c-6.491-.423-11.335-2.911-17-6z" fill="#0c0c0d"/><path d="M612.18 266.831h42v1h-25v3h-3v-3h-14z" fill="#577ea9"/><path d="M100.18 232.831h1l1 17h-2v25h-1l-.055-12.158-.021-4.119c-.054-8.633.177-17.134 1.075-25.723z" fill="#aaaaa9"/><path d="M636.18 232.831l1 2c-6.253 1.152-12.635 2-19 2 5.799-5.284 10.35-5.998 18-4z" fill="#a0a0a0"/><path d="M1008.18 753.831v2c-1.405 1.221-1.405 1.221-3.359 2.566l-2.133 1.471-2.258 1.525-2.211 1.537c-3.343 2.282-6.021 4.105-10.039 4.9 3.145-4.449 6.577-6.995 11.125-9.812l1.918-1.232c4.678-2.955 4.678-2.955 6.957-2.955z" fill="#f6f6f6"/><path d="M107.18 134.831l1 2-4 7-1.875 3.188c-2.461 3.258-4.64 4.753-8.125 6.813 1.557-4.905 4.433-8.38 7.625-12.312l1.563-1.955z" fill="#888786"/><path d="M909.18 551.831l1 3c3.512 1.23 3.512 1.23 7 2v6l2 1c-3.511-.584-5.29-1.833-7.812-4.312l-1.895-1.801c-1.293-1.887-1.293-1.887-.992-4.117z" fill="#a9a9a9"/><path d="M461.43 300.706l2.258.316 5.492.809-2 1v2l-8.789-1.465-3.211-.535-6-1c3.92-2.785 7.786-1.811 12.25-1.125z" fill="#1e1e1e"/><path d="M766.18 236.831l1 2h6l-2 5h-5v-2l-3-1 1-3z" fill="#adadad"/><path d="M586.493 445.206l2.391.301 8.296 1.324-2 1v2l-5.75-.875-3.234-.492c-2.693-.565-4.651-1.267-7.016-2.633 3.008-1.003 4.263-1.015 7.313-.625z" fill="#11090c"/><path d="M701.18 379.831c5.526 1.192 8.178 2.599 12 7-7.262-.369-7.262-.369-11-3.562l-2-2.438z" fill="#0c0d0f"/><path d="M484.18 509.831l7.813.438 2.236.119c3.182.187 5.913.431 8.951 1.443v3c-6.875-.875-6.875-.875-8-2l-5.562-.562-3.066-.254-2.372-.184z" fill="#7dabdc"/><path d="M611.18 226.831l.75 1.813c1.13 2.32 1.13 2.32 3.375 3.75l1.875 1.437v3l-10-4z" fill="#a0a0a0"/><path d="M439.18 297.831l14 1v2h-16z" fill="#040404"/><path d="M650.18 234.831l4 1-2 1 7 3c-3.774 1.336-6.858.724-10.75.063l-3.547-.59-2.703-.473v-1l3.438-.937c3.35-.692 3.35-.692 4.563-2.062z" fill="#999998"/><path d="M920.18 813.831l-2.875.75c-3.558 1.423-3.677 1.941-5.125 5.25-2.125 1.25-2.125 1.25-4 2l1-4-4-1 6.375-2.062 3.586-1.16c3.039-.778 3.039-.778 5.039.222z" fill="#aeadab"/><path d="M320.18 875.831c5.845 1.538 11.127 4.456 16 8v2c-3.937-1.432-7.289-3.303-10.812-5.562l-2.957-1.879-2.231-1.559z" fill="#bdbdbc"/><path d="M822.18 243.831c7.361.313 13.309 1.939 20 5-3.847 1.282-5.586.589-9.25-.937-3.529-1.363-7.069-2.189-10.75-3.062v-1z" fill="#949494"/><path d="M776.18 833.831h21v1l-3.141.148-4.109.227-2.066.094c-3.671.214-6.546.542-9.684 2.531v-3z" fill="#a5a5a3"/><path d="M407.18 69.831l-4 1v2l-8 1v-2l-2-1c4.776-2.619 8.844-1.831 14-1z" fill="#909090"/><path d="M889.18 533.831c3.239 1.444 5.62 3.258 8.25 5.625l2.141 1.914 1.609 1.461-1 4-5.5-5.937-1.59-1.709c-3.91-4.24-3.91-4.24-3.91-5.354z" fill="#a0a0a0"/><path d="M27.18 476.831c1.5 1.188 1.5 1.188 3 3 .188 2.688.188 2.688 0 5l5 1v2h-4l-2 4-1-4.687-.562-2.637c-.427-2.613-.514-5.034-.437-7.676z" fill="#aaa9a8"/><path d="M459.18 105.831c4.601 1.489 7.502 3.746 11 7v2c-3.777-1.813-7.373-3.907-11-6z" fill="#acacac"/><path d="M650.18 368.831l13 1c-5.574 2.787-8.897 3.277-15 2l2-1z" fill="#19191a"/><path d="M379.18 124.831h1l.188 7.75.076 2.211c.046 3.384-.01 5.618-1.775 8.555l-1.489 1.484c-.316-6.798.873-13.31 2-20z" fill="#d1d0d0"/><path d="M410.18 76.831l1 2 2.313-.5c4.002-.745 5.208-.819 8.688 1.5v2l-5.812-.875-3.27-.492c-2.919-.633-2.919-.633-5.919-2.633z" fill="#b5b5b5"/><path d="M364.18 360.831l3 4-6 5c-1-2-1-2-.187-5.062 1.187-2.938 1.187-2.938 3.187-3.938z" fill="#5692d4"/><path d="M849.18 273.831c3.344.557 6.033 1.352 9 3v5l-3.937-2.875-2.215-1.617c-1.848-1.508-1.848-1.508-2.848-3.508z" fill="#c6c6c6"/><path d="M357.18 353.831l2 3h-2l1 2h2l-2 4h-4z" fill="#5491d4"/><path d="M424.18 81.831c3.873 1.144 7.003 2.233 10 5v2c-3.669-.706-6.705-2.277-10-4z" fill="#b6b6b5"/><path d="M891.18 646.831l11 1-2 1v2l-8-1z" fill="#818488"/><path d="M391.18 334.831l1 2-2-1zm-9 2h8l-2 4h-4v-2l-3 1z" fill="#5390d3"/><path d="M612.18 227.831l7 2-1 4c-2.437-.75-2.437-.75-5-2-.812-2.125-.812-2.125-1-4z" fill="#b2b2b2"/><path d="M32.18 361.831l4 1c-.35 3.242-.562 4.615-3.062 6.813l-1.938 1.187c-1.255-3.766-.371-5.372 1-9z" fill="#bebdbc"/><path d="M118.18 142.831l1 2c-.672 1.91-.672 1.91-1.75 4.063l-1.047 2.16c-1.203 1.777-1.203 1.777-4.203 2.777.607-3.153 1.642-5.189 3.563-7.75l1.379-1.859z" fill="#b6b5b4"/><path d="M125.18 127.831l1 2c-.855 2.129-.855 2.129-2.187 4.563l-1.293 2.441c-1.52 1.996-1.52 1.996-3.696 2.773l-1.824.223c1.41-3.039 3.089-5.594 5.125-8.25l1.633-2.141z" fill="#c1c0bf"/><path d="M461.18 109.831c3.439 1.242 6.252 2.557 9 5v2l3 1v2c-3.213-1.44-5.621-3.23-8.25-5.562l-2.141-1.879-1.609-1.559z" fill="#959595"/><path d="M45.18 474.831l3 2c-.375 1.938-.375 1.938-1 4l-2 1-3-2c0-2 0-2 1.5-3.625z" fill="#b7b6b5"/><path d="M853.18 494.831c3.534 1.963 6.245 4.041 9 7-4 0-4 0-6.75-2.375-2.25-2.625-2.25-2.625-2.25-4.625z" fill="#bababa"/><path d="M395.18 292.831h5l-4 7h-3v-2h2z" fill="#5088c7"/><path d="M729.442 247.538l2.426.105 2.449.082 1.863.106-1 3h-11c3-3 3-3 5.262-3.293z" fill="#a8a8a8"/><path d="M925.18 809.831l3 1-1.937 1.875c-2.101 1.951-2.101 1.951-3.062 4.125l-3-1c1.37-3.161 1.989-3.993 5-6z" fill="#b2b2b0"/><path d="M909.18 551.831l1 3c2.015.733 2.015.733 4 1v3c-2.867-.573-3.861-.861-6-3 .375-2.125.375-2.125 1-4z" fill="#a1a1a1"/><path d="M116.18 357.831h2c3 6.5 3 6.5 3 11h-2z" fill="#939291"/><path d="M809.805 254.081l3.375.75 1 2-11-1c3-2 3-2 6.625-1.75z" fill="#a4a4a4"/><path d="M848.18 488.831l5 1-1 3 4 2-4 1z" fill="#979797"/><path d="M591.223 445.757l5.957 1.074-2 1v2l-9-1c3-3 3-3 5.043-3.074z" fill="#1e0d10"/><path d="M787.18 247.831l4 1v2h7v1h-10z" fill="#9e9e9e"/><path d="M972.18 664.831c0 3 0 3-2.5 5.688l-2.5 2.312-3-1c1.379-2.757 3.375-3.463 6-5z" fill="#d7d7d7"/><path d="M400.18 408.831l1 4h-6v-3c3-1 3-1 5-1zm1 1l2 1z" fill="#70a4da"/><path d="M368.18 403.831l2 3h-2zm-3 2l4 2-2 1v2h-2l-1-4z" fill="#75a7db"/><path d="M375.18 371.831l1 2h2l-1 4h-3l-2-4h3z" fill="#5592d3"/><path d="M461.18 300.831l8 1-2 1v2l-6-1z" fill="#2f3843"/><path d="M804.18 251.831l-1 3-8-1c3.435-2.29 4.985-2.178 9-2z" fill="#a5a4a4"/><path d="M677.18 239.831h4l1 3c-1 1-1 1-3.562 1.063l-2.438-.063z" fill="#c3c3c3"/><path d="M29.18 370.831l2 1-3 2zm-2 3l1 2 3 1-6 1z" fill="#bab9b8"/><path d="M467.18 302.831l8 1-2 1v2l-6-2z" fill="#1f2124"/><path d="M774.18 236.831h8l-3 1-1 3h-2v-2h-2z" fill="#9a9999"/><path d="M629.18 231.831l7 1 1 2c-2.788 1.033-3.868 1.045-6.75.063l-2.25-1.063z" fill="#a8a8a8"/><path d="M100.18 143.831l1 2c-3.625 5.75-3.625 5.75-7 8 1.37-3.995 3.257-6.8 6-10z" fill="#8f8e8e"/><path d="M139.18 128.831c1 2 1 2 .25 4.563-1.25 2.437-1.25 2.437-4.25 3.437.498-3.688 1.101-5.605 4-8z" fill="#f4f4f4"/><path d="M871.18 929.831h3l-1 5-3 1z" fill="#b4b3b1"/><path d="M975.18 823.831c0 3 0 3-1.5 4.688l-1.5 1.312-2-1 1-4z" fill="#b6b5b4"/><path d="M844.18 474.831l3 1-1 5-2 1v-3l-2-1 2-1z" fill="#bababa"/><path d="M611.18 226.831h1v6l-2 1-3-2z" fill="#979696"/><path d="M361.18 900.831l2 1z"/></svg>